<svg width="39" height="39" viewBox="0 0 39 39" fill="none" xmlns="http://www.w3.org/2000/svg">
<rect x="8.35742" y="2.78571" width="2.78571" height="2.78571" fill="#F2AA18"/>
<rect x="8.35742" y="5.57141" width="2.78571" height="2.78571" fill="#F2AA18"/>
<rect x="8.35742" y="8.35712" width="2.78571" height="2.78571" fill="#F2AA18"/>
<rect x="8.35742" y="11.1429" width="2.78571" height="2.78571" fill="#F2AA18"/>
<rect x="8.35742" y="13.9286" width="2.78571" height="2.78571" fill="#F2AA18"/>
<rect x="8.35742" y="16.7143" width="2.78571" height="2.78571" fill="#F2AA18"/>
<rect x="8.35742" y="19.5" width="2.78571" height="2.78571" fill="#F2AA18"/>
<rect x="8.35742" y="22.2857" width="2.78571" height="2.78571" fill="#F2AA18"/>
<rect x="8.35742" y="25.0714" width="2.78571" height="2.78571" fill="#F2AA18"/>
<rect x="8.35742" y="27.8571" width="2.78571" height="2.78571" fill="#F2AA18"/>
<rect x="8.35742" y="30.6429" width="2.78571" height="2.78571" fill="#B7620F"/>
<rect x="8.35742" y="33.4286" width="2.78571" height="2.78571" fill="#803239"/>
<rect x="8.35742" y="36.2143" width="2.78571" height="2.78571" fill="#050009"/>
<rect x="8.35742" width="2.78571" height="2.78571" fill="#050009"/>
<rect x="11.1426" y="2.78571" width="2.78571" height="2.78571" fill="#F2AA18"/>
<rect x="11.1426" y="5.57141" width="2.78571" height="2.78571" fill="#F2AA18"/>
<rect x="11.1426" y="8.35712" width="2.78571" height="2.78571" fill="#F2AA18"/>
<rect x="11.1426" y="11.1429" width="2.78571" height="2.78571" fill="#F2AA18"/>
<rect x="11.1426" y="13.9286" width="2.78571" height="2.78571" fill="#F2AA18"/>
<rect x="11.1426" y="16.7143" width="2.78571" height="2.78571" fill="#F2AA18"/>
<rect x="11.1426" y="19.5" width="2.78571" height="2.78571" fill="#F2AA18"/>
<rect x="11.1426" y="22.2857" width="2.78571" height="2.78571" fill="#F2AA18"/>
<rect x="11.1426" y="25.0714" width="2.78571" height="2.78571" fill="#F2AA18"/>
<rect x="11.1426" y="27.8571" width="2.78571" height="2.78571" fill="#F2AA18"/>
<rect x="11.1426" y="30.6429" width="2.78571" height="2.78571" fill="#B7620F"/>
<rect x="11.1426" y="33.4286" width="2.78571" height="2.78571" fill="#803239"/>
<rect x="11.1426" y="36.2143" width="2.78571" height="2.78571" fill="#050009"/>
<rect x="11.1426" width="2.78571" height="2.78571" fill="#050009"/>
<rect x="13.9287" y="2.78571" width="2.78571" height="2.78571" fill="#F2AA18"/>
<rect x="13.9287" y="5.57141" width="2.78571" height="2.78571" fill="#F2AA18"/>
<rect x="13.9287" y="8.35712" width="2.78571" height="2.78571" fill="#F2AA18"/>
<rect x="13.9287" y="11.1429" width="2.78571" height="2.78571" fill="#F2AA18"/>
<rect x="13.9287" y="13.9286" width="2.78571" height="2.78571" fill="#F2AA18"/>
<rect x="13.9287" y="16.7143" width="2.78571" height="2.78571" fill="#F2AA18"/>
<rect x="13.9287" y="19.5" width="2.78571" height="2.78571" fill="#F2AA18"/>
<rect x="13.9287" y="22.2857" width="2.78571" height="2.78571" fill="#F2AA18"/>
<rect x="13.9287" y="25.0714" width="2.78571" height="2.78571" fill="#F2AA18"/>
<rect x="13.9287" y="27.8571" width="2.78571" height="2.78571" fill="#F2AA18"/>
<rect x="13.9287" y="30.6429" width="2.78571" height="2.78571" fill="#B7620F"/>
<rect x="13.9287" y="33.4286" width="2.78571" height="2.78571" fill="#803239"/>
<rect x="13.9287" y="36.2143" width="2.78571" height="2.78571" fill="#050009"/>
<rect x="13.9287" width="2.78571" height="2.78571" fill="#050009"/>
<rect x="16.7139" y="2.78571" width="2.78571" height="2.78571" fill="#F2AA18"/>
<rect x="16.7139" y="5.57141" width="2.78571" height="2.78571" fill="#F2AA18"/>
<rect x="16.7139" y="8.35712" width="2.78571" height="2.78571" fill="#F2AA18"/>
<rect x="16.7139" y="11.1429" width="2.78571" height="2.78571" fill="#F2AA18"/>
<rect x="16.7139" y="13.9286" width="2.78571" height="2.78571" fill="#F2AA18"/>
<rect x="16.7139" y="16.7143" width="2.78571" height="2.78571" fill="#F2AA18"/>
<rect x="16.7139" y="19.5" width="2.78571" height="2.78571" fill="#F2AA18"/>
<rect x="16.7139" y="22.2857" width="2.78571" height="2.78571" fill="#F2AA18"/>
<rect x="16.7139" y="25.0714" width="2.78571" height="2.78571" fill="#F2AA18"/>
<rect x="16.7139" y="27.8571" width="2.78571" height="2.78571" fill="#F2AA18"/>
<rect x="16.7139" y="30.6429" width="2.78571" height="2.78571" fill="#B7620F"/>
<rect x="16.7139" y="33.4286" width="2.78571" height="2.78571" fill="#803239"/>
<rect x="16.7139" y="36.2143" width="2.78571" height="2.78571" fill="#050009"/>
<rect x="16.7139" width="2.78571" height="2.78571" fill="#050009"/>
<rect x="19.5" y="2.78571" width="2.78571" height="2.78571" fill="#F2AA18"/>
<rect x="19.5" y="5.57141" width="2.78571" height="2.78571" fill="#F2AA18"/>
<rect x="19.5" y="8.35712" width="2.78571" height="2.78571" fill="#F2AA18"/>
<rect x="19.5" y="11.1429" width="2.78571" height="2.78571" fill="#F2AA18"/>
<rect x="19.5" y="13.9286" width="2.78571" height="2.78571" fill="#F2AA18"/>
<rect x="19.5" y="16.7143" width="2.78571" height="2.78571" fill="#F2AA18"/>
<rect x="19.5" y="19.5" width="2.78571" height="2.78571" fill="#F2AA18"/>
<rect x="19.5" y="22.2857" width="2.78571" height="2.78571" fill="#F2AA18"/>
<rect x="19.5" y="25.0714" width="2.78571" height="2.78571" fill="#F2AA18"/>
<rect x="19.5" y="27.8571" width="2.78571" height="2.78571" fill="#F2AA18"/>
<rect x="19.5" y="30.6429" width="2.78571" height="2.78571" fill="#B7620F"/>
<rect x="19.5" y="33.4286" width="2.78571" height="2.78571" fill="#803239"/>
<rect x="19.5" y="36.2143" width="2.78571" height="2.78571" fill="#050009"/>
<rect x="19.5" width="2.78571" height="2.78571" fill="#050009"/>
<rect x="22.2861" y="2.78571" width="2.78571" height="2.78571" fill="#F2AA18"/>
<rect x="22.2861" y="5.57141" width="2.78571" height="2.78571" fill="#F2AA18"/>
<rect x="22.2861" y="8.35712" width="2.78571" height="2.78571" fill="#F2AA18"/>
<rect x="22.2861" y="11.1429" width="2.78571" height="2.78571" fill="#F2AA18"/>
<rect x="22.2861" y="13.9286" width="2.78571" height="2.78571" fill="#F2AA18"/>
<rect x="22.2861" y="16.7143" width="2.78571" height="2.78571" fill="#F2AA18"/>
<rect x="22.2861" y="19.5" width="2.78571" height="2.78571" fill="#F2AA18"/>
<rect x="22.2861" y="22.2857" width="2.78571" height="2.78571" fill="#F2AA18"/>
<rect x="22.2861" y="25.0714" width="2.78571" height="2.78571" fill="#F2AA18"/>
<rect x="22.2861" y="27.8571" width="2.78571" height="2.78571" fill="#F2AA18"/>
<rect x="22.2861" y="30.6429" width="2.78571" height="2.78571" fill="#B7620F"/>
<rect x="22.2861" y="33.4286" width="2.78571" height="2.78571" fill="#803239"/>
<rect x="22.2861" y="36.2143" width="2.78571" height="2.78571" fill="#050009"/>
<rect x="22.2861" width="2.78571" height="2.78571" fill="#050009"/>
<rect x="25.0713" y="2.78571" width="2.78571" height="2.78571" fill="#F2AA18"/>
<rect x="25.0713" y="5.57141" width="2.78571" height="2.78571" fill="#F2AA18"/>
<rect x="25.0713" y="8.35712" width="2.78571" height="2.78571" fill="#F2AA18"/>
<rect x="25.0713" y="11.1429" width="2.78571" height="2.78571" fill="#F2AA18"/>
<rect x="25.0713" y="13.9286" width="2.78571" height="2.78571" fill="#F2AA18"/>
<rect x="25.0713" y="16.7143" width="2.78571" height="2.78571" fill="#F2AA18"/>
<rect x="25.0713" y="19.5" width="2.78571" height="2.78571" fill="#F2AA18"/>
<rect x="25.0713" y="22.2857" width="2.78571" height="2.78571" fill="#F2AA18"/>
<rect x="25.0713" y="25.0714" width="2.78571" height="2.78571" fill="#F2AA18"/>
<rect x="25.0713" y="27.8571" width="2.78571" height="2.78571" fill="#F2AA18"/>
<rect x="25.0713" y="30.6429" width="2.78571" height="2.78571" fill="#B7620F"/>
<rect x="25.0713" y="33.4286" width="2.78571" height="2.78571" fill="#803239"/>
<rect x="25.0713" y="36.2143" width="2.78571" height="2.78571" fill="#050009"/>
<rect x="25.0713" width="2.78571" height="2.78571" fill="#050009"/>
<rect x="27.8574" y="2.78571" width="2.78571" height="2.78571" fill="#F2AA18"/>
<rect x="27.8574" y="5.57141" width="2.78571" height="2.78571" fill="#F2AA18"/>
<rect x="30.6426" y="5.57141" width="2.78571" height="2.78571" fill="#F2AA18"/>
<rect x="5.57129" y="5.57141" width="2.78571" height="2.78571" fill="#F2AA18"/>
<rect x="30.6426" y="11.1429" width="2.78571" height="2.78571" fill="#F2AA18"/>
<rect x="5.57129" y="11.1429" width="2.78571" height="2.78571" fill="#F2AA18"/>
<rect x="30.6426" y="16.7143" width="2.78571" height="2.78571" fill="#F2AA18"/>
<rect x="5.57129" y="16.7143" width="2.78571" height="2.78571" fill="#F2AA18"/>
<rect x="30.6426" y="22.2857" width="2.78571" height="2.78571" fill="#F2AA18"/>
<rect x="5.57129" y="22.2857" width="2.78571" height="2.78571" fill="#F2AA18"/>
<rect x="30.6426" y="8.35712" width="2.78571" height="2.78571" fill="#F2AA18"/>
<rect x="5.57129" y="8.35712" width="2.78571" height="2.78571" fill="#F2AA18"/>
<rect x="33.4287" y="8.35712" width="2.78571" height="2.78571" fill="#F2AA18"/>
<rect x="2.78613" y="8.35712" width="2.78571" height="2.78571" fill="#F2AA18"/>
<rect y="8.35712" width="2.78571" height="2.78571" fill="#050009"/>
<rect x="36.2139" y="8.35712" width="2.78571" height="2.78571" fill="#050009"/>
<rect x="33.4287" y="13.9286" width="2.78571" height="2.78571" fill="#F2AA18"/>
<rect x="2.78613" y="13.9286" width="2.78571" height="2.78571" fill="#F2AA18"/>
<rect y="13.9286" width="2.78571" height="2.78571" fill="#050009"/>
<rect x="36.2139" y="13.9286" width="2.78571" height="2.78571" fill="#050009"/>
<rect x="33.4287" y="19.5" width="2.78571" height="2.78571" fill="#F2AA18"/>
<rect x="2.78613" y="19.5" width="2.78571" height="2.78571" fill="#F2AA18"/>
<rect y="19.5" width="2.78571" height="2.78571" fill="#050009"/>
<rect x="36.2139" y="19.5" width="2.78571" height="2.78571" fill="#050009"/>
<rect y="25.0714" width="2.78571" height="2.78571" fill="#050009"/>
<rect x="36.2139" y="25.0714" width="2.78571" height="2.78571" fill="#050009"/>
<rect x="33.4287" y="11.1429" width="2.78571" height="2.78571" fill="#F2AA18"/>
<rect x="2.78613" y="11.1429" width="2.78571" height="2.78571" fill="#F2AA18"/>
<rect y="11.1429" width="2.78571" height="2.78571" fill="#050009"/>
<rect x="36.2139" y="11.1429" width="2.78571" height="2.78571" fill="#050009"/>
<rect x="33.4287" y="16.7143" width="2.78571" height="2.78571" fill="#F2AA18"/>
<rect x="2.78613" y="16.7143" width="2.78571" height="2.78571" fill="#F2AA18"/>
<rect y="16.7143" width="2.78571" height="2.78571" fill="#050009"/>
<rect x="36.2139" y="16.7143" width="2.78571" height="2.78571" fill="#050009"/>
<rect x="33.4287" y="22.2857" width="2.78571" height="2.78571" fill="#F2AA18"/>
<rect x="2.78613" y="22.2857" width="2.78571" height="2.78571" fill="#F2AA18"/>
<rect y="22.2857" width="2.78571" height="2.78571" fill="#050009"/>
<rect x="36.2139" y="22.2857" width="2.78571" height="2.78571" fill="#050009"/>
<rect y="27.8571" width="2.78571" height="2.78571" fill="#050009"/>
<rect x="36.2139" y="27.8571" width="2.78571" height="2.78571" fill="#050009"/>
<rect x="2.78613" y="25.0714" width="2.78571" height="2.78571" fill="#B7620F"/>
<rect x="33.4287" y="25.0714" width="2.78571" height="2.78571" fill="#B7620F"/>
<rect x="30.6426" y="13.9286" width="2.78571" height="2.78571" fill="#F2AA18"/>
<rect x="5.57129" y="13.9286" width="2.78571" height="2.78571" fill="#F2AA18"/>
<rect x="30.6426" y="19.5" width="2.78571" height="2.78571" fill="#F2AA18"/>
<rect x="5.57129" y="19.5" width="2.78571" height="2.78571" fill="#F2AA18"/>
<rect x="30.6426" y="25.0714" width="2.78571" height="2.78571" fill="#F2AA18"/>
<rect x="5.57129" y="25.0714" width="2.78571" height="2.78571" fill="#F2AA18"/>
<rect x="5.57129" y="27.8571" width="2.78571" height="2.78571" fill="#B7620F"/>
<rect x="5.57129" y="30.6429" width="2.78571" height="2.78571" fill="#803239"/>
<rect x="30.6426" y="30.6429" width="2.78571" height="2.78571" fill="#803239"/>
<rect x="2.78613" y="27.8571" width="2.78571" height="2.78571" fill="#803239"/>
<rect x="33.4287" y="27.8571" width="2.78571" height="2.78571" fill="#803239"/>
<rect x="5.57129" y="33.4286" width="2.78571" height="2.78571" fill="#050009"/>
<rect x="5.57129" y="2.78571" width="2.78571" height="2.78571" fill="#050009"/>
<rect x="30.6426" y="2.78571" width="2.78571" height="2.78571" fill="#050009"/>
<rect x="30.6426" y="33.4286" width="2.78571" height="2.78571" fill="#050009"/>
<rect x="2.78613" y="30.6429" width="2.78571" height="2.78571" fill="#050009"/>
<rect x="2.78613" y="5.57141" width="2.78571" height="2.78571" fill="#050009"/>
<rect x="33.4287" y="5.57141" width="2.78571" height="2.78571" fill="#050009"/>
<rect x="33.4287" y="30.6429" width="2.78571" height="2.78571" fill="#050009"/>
<rect x="30.6426" y="27.8571" width="2.78571" height="2.78571" fill="#B7620F"/>
<rect x="27.8574" y="8.35712" width="2.78571" height="2.78571" fill="#F2AA18"/>
<rect x="27.8574" y="11.1429" width="2.78571" height="2.78571" fill="#F2AA18"/>
<rect x="27.8574" y="13.9286" width="2.78571" height="2.78571" fill="#F2AA18"/>
<rect x="27.8574" y="16.7143" width="2.78571" height="2.78571" fill="#F2AA18"/>
<rect x="27.8574" y="19.5" width="2.78571" height="2.78571" fill="#F2AA18"/>
<rect x="27.8574" y="22.2857" width="2.78571" height="2.78571" fill="#F2AA18"/>
<rect x="27.8574" y="25.0714" width="2.78571" height="2.78571" fill="#F2AA18"/>
<rect x="27.8574" y="27.8571" width="2.78571" height="2.78571" fill="#F2AA18"/>
<rect x="27.8574" y="30.6429" width="2.78571" height="2.78571" fill="#B7620F"/>
<rect x="27.8574" y="33.4286" width="2.78571" height="2.78571" fill="#803239"/>
<rect x="27.8574" y="36.2143" width="2.78571" height="2.78571" fill="#050009"/>
<rect x="27.8574" width="2.78571" height="2.78571" fill="#050009"/>
<rect x="10.5215" y="13.6871" width="2.26662" height="2.26662" fill="#E1E4F5"/>
<rect x="8.25488" y="13.6871" width="2.26662" height="2.26662" fill="#030000"/>
<rect x="10.5215" y="11.4207" width="2.26662" height="2.26662" fill="#030000"/>
<rect x="10.5215" y="18.2205" width="2.26662" height="2.26662" fill="#030000"/>
<rect x="12.7881" y="9.43732" width="2.26662" height="2.26662" fill="#030000"/>
<rect x="12.7881" y="20.7704" width="2.26662" height="2.26662" fill="#030000"/>
<rect x="15.0547" y="7.17072" width="2.26662" height="2.26662" fill="#030000"/>
<rect x="15.0547" y="23.0369" width="2.26662" height="2.26662" fill="#030000"/>
<rect x="17.3213" y="4.90417" width="2.26662" height="2.26662" fill="#030000"/>
<rect x="19.5879" y="7.17072" width="2.26662" height="2.26662" fill="#030000"/>
<rect x="19.5879" y="20.7704" width="2.26662" height="2.26662" fill="#030000"/>
<rect x="21.8545" y="20.7704" width="2.26662" height="2.26662" fill="#030000"/>
<rect x="24.1211" y="20.7704" width="2.26662" height="2.26662" fill="#030000"/>
<rect x="26.3877" y="20.7704" width="2.26662" height="2.26662" fill="#030000"/>
<rect x="26.3877" y="18.5038" width="2.26662" height="2.26662" fill="#030000"/>
<rect x="26.3877" y="13.9705" width="2.26662" height="2.26662" fill="#030000"/>
<rect x="26.3877" y="16.2371" width="2.26662" height="2.26662" fill="#030000"/>
<rect x="26.3877" y="11.704" width="2.26662" height="2.26662" fill="#030000"/>
<rect x="19.5879" y="9.43732" width="2.26662" height="2.26662" fill="#030000"/>
<rect x="21.8545" y="9.43732" width="2.26662" height="2.26662" fill="#030000"/>
<rect x="24.1211" y="9.43732" width="2.26662" height="2.26662" fill="#030000"/>
<rect x="26.3877" y="9.43732" width="2.26662" height="2.26662" fill="#030000"/>
<rect x="19.5879" y="23.0369" width="2.26662" height="2.26662" fill="#030000"/>
<rect x="17.3213" y="25.3038" width="2.26662" height="2.26662" fill="#030000"/>
<rect x="12.7881" y="11.704" width="2.26662" height="2.26662" fill="#FFFFFD"/>
<rect x="15.0547" y="11.704" width="2.26662" height="2.26662" fill="#FFFFFD"/>
<rect x="17.3213" y="11.704" width="2.26662" height="2.26662" fill="#FFFFFD"/>
<rect x="19.5879" y="11.704" width="2.26662" height="2.26662" fill="#FFFFFD"/>
<rect x="21.8545" y="11.704" width="2.26662" height="2.26662" fill="#FFFFFD"/>
<rect x="24.1211" y="11.704" width="2.26662" height="2.26662" fill="#FFFFFD"/>
<rect x="15.0547" y="9.43732" width="2.26662" height="2.26662" fill="#FFFFFD"/>
<rect x="17.3213" y="9.43732" width="2.26662" height="2.26662" fill="#FFFFFD"/>
<rect x="17.3213" y="7.17072" width="2.26662" height="2.26662" fill="#FFFFFD"/>
<rect x="12.7881" y="16.2371" width="2.26662" height="2.26662" fill="#E1E4F5"/>
<rect x="15.0547" y="16.2371" width="2.26662" height="2.26662" fill="#FFFFFD"/>
<rect x="17.3213" y="16.2371" width="2.26662" height="2.26662" fill="#FFFFFD"/>
<rect x="19.5879" y="16.2371" width="2.26662" height="2.26662" fill="#FFFFFD"/>
<rect x="21.8545" y="16.2371" width="2.26662" height="2.26662" fill="#FFFFFD"/>
<rect x="24.1211" y="16.2371" width="2.26662" height="2.26662" fill="#FFFFFD"/>
<rect x="10.5215" y="15.9538" width="2.26662" height="2.26662" fill="#E1E4F5"/>
<rect x="8.25488" y="15.9538" width="2.26662" height="2.26662" fill="#030000"/>
<rect x="12.7881" y="13.9705" width="2.26662" height="2.26662" fill="#FFFFFD"/>
<rect x="15.0547" y="13.9705" width="2.26662" height="2.26662" fill="#FFFFFD"/>
<rect x="17.3213" y="13.9705" width="2.26662" height="2.26662" fill="#FFFFFD"/>
<rect x="19.5879" y="13.9705" width="2.26662" height="2.26662" fill="#FFFFFD"/>
<rect x="21.8545" y="13.9705" width="2.26662" height="2.26662" fill="#FFFFFD"/>
<rect x="24.1211" y="13.9705" width="2.26662" height="2.26662" fill="#FFFFFD"/>
<rect x="12.7881" y="18.5038" width="2.26662" height="2.26662" fill="#E1E4F5"/>
<rect x="15.0547" y="18.5038" width="2.26662" height="2.26662" fill="#E1E4F5"/>
<rect x="17.3213" y="18.5038" width="2.26662" height="2.26662" fill="#FFFFFD"/>
<rect x="19.5879" y="18.5038" width="2.26662" height="2.26662" fill="#FFFFFD"/>
<rect x="21.8545" y="18.5038" width="2.26662" height="2.26662" fill="#FFFFFD"/>
<rect x="24.1211" y="18.5038" width="2.26662" height="2.26662" fill="#FFFFFD"/>
<rect x="15.0547" y="20.7704" width="2.26662" height="2.26662" fill="#E1E4F5"/>
<rect x="17.3213" y="20.7704" width="2.26662" height="2.26662" fill="#FFFFFD"/>
<rect x="17.3213" y="23.0369" width="2.26662" height="2.26662" fill="#E1E4F5"/>
</svg>
