<svg width="694" height="701" viewBox="0 0 694 701" fill="none" xmlns="http://www.w3.org/2000/svg">
<rect x="222" y="221" width="6" height="6" fill="white"/>
<rect x="361" y="116" width="6" height="6" fill="white"/>
<rect x="497" y="232" width="6" height="6" fill="white"/>
<rect x="514" width="6" height="6" fill="white"/>
<rect x="463" y="412" width="6" height="6" fill="white"/>
<rect x="242" y="540" width="6" height="6" fill="white"/>
<rect x="236" y="546" width="6" height="6" fill="white"/>
<rect x="681" y="323" width="6" height="6" fill="white"/>
<rect x="675" y="329" width="6" height="6" fill="white"/>
<rect x="688" y="534" width="6" height="6" fill="white"/>
<rect x="682" y="540" width="6" height="6" fill="white"/>
<rect x="488" y="591" width="6" height="6" fill="white"/>
<rect x="578" y="671" width="6" height="6" fill="white"/>
<rect x="219" y="45" width="4" height="5" fill="white"/>
<rect x="223" y="50" width="5" height="4" fill="white"/>
<rect x="212" y="692" width="4" height="5" fill="white"/>
<rect x="216" y="697" width="5" height="4" fill="white"/>
<rect y="125" width="6" height="6" fill="white"/>
<rect x="644" y="128" width="6" height="6" fill="white"/>
<rect x="131" y="241" width="6" height="6" fill="white"/>
<rect x="123" y="38" width="6" height="6" fill="white"/>
<rect x="97" y="421" width="6" height="6" fill="white"/>
<rect x="122" y="600" width="6" height="6" fill="white"/>
</svg>
