<svg width="26" height="22" viewBox="0 0 26 22" fill="none" xmlns="http://www.w3.org/2000/svg">
<g filter="url(#filter0_d_436_129)">
<path fill-rule="evenodd" clip-rule="evenodd" d="M10.75 14L13 14L13 10L15 10L17 10L18 10L20 10L22 10L22 8L22 6.875L22 6L22 5.25L22 4.25L22 3.625L22 2.625L22 1L20.25 1L19.75 1L18 1L18 2.625L18 3.625L18 4.25L18 5.25L18 6L15 6L13 6L13 0.5L10.75 0.5L10.75 2.75L8.5 2.75L8.5 4.625L6.25 4.625L6.25 5.75L4 5.75L4 8.375L6.25 8.375L6.25 9.5L8.5 9.5L8.5 11.75L10.75 11.75L10.75 14Z" fill="#1EB82D"/>
</g>
<defs>
<filter id="filter0_d_436_129" x="0" y="0.5" width="26" height="21.5" filterUnits="userSpaceOnUse" color-interpolation-filters="sRGB">
<feFlood flood-opacity="0" result="BackgroundImageFix"/>
<feColorMatrix in="SourceAlpha" type="matrix" values="0 0 0 0 0 0 0 0 0 0 0 0 0 0 0 0 0 0 127 0" result="hardAlpha"/>
<feOffset dy="4"/>
<feGaussianBlur stdDeviation="2"/>
<feComposite in2="hardAlpha" operator="out"/>
<feColorMatrix type="matrix" values="0 0 0 0 0 0 0 0 0 0 0 0 0 0 0 0 0 0 0.25 0"/>
<feBlend mode="normal" in2="BackgroundImageFix" result="effect1_dropShadow_436_129"/>
<feBlend mode="normal" in="SourceGraphic" in2="effect1_dropShadow_436_129" result="shape"/>
</filter>
</defs>
</svg>
