<svg width="39" height="39" viewBox="0 0 39 39" fill="none" xmlns="http://www.w3.org/2000/svg">
<rect x="8.35742" y="2.78571" width="2.78571" height="2.78571" fill="#F2AA18"/>
<rect x="8.35742" y="5.57141" width="2.78571" height="2.78571" fill="#F2AA18"/>
<rect x="8.35742" y="8.35712" width="2.78571" height="2.78571" fill="#F2AA18"/>
<rect x="8.35742" y="11.1429" width="2.78571" height="2.78571" fill="#F2AA18"/>
<rect x="8.35742" y="13.9286" width="2.78571" height="2.78571" fill="#F2AA18"/>
<rect x="8.35742" y="16.7143" width="2.78571" height="2.78571" fill="#F2AA18"/>
<rect x="8.35742" y="19.5" width="2.78571" height="2.78571" fill="#F2AA18"/>
<rect x="8.35742" y="22.2857" width="2.78571" height="2.78571" fill="#F2AA18"/>
<rect x="8.35742" y="25.0714" width="2.78571" height="2.78571" fill="#F2AA18"/>
<rect x="8.35742" y="27.8571" width="2.78571" height="2.78571" fill="#F2AA18"/>
<rect x="8.35742" y="30.6429" width="2.78571" height="2.78571" fill="#B7620F"/>
<rect x="8.35742" y="33.4286" width="2.78571" height="2.78571" fill="#B7620F"/>
<rect x="8.35742" y="36.2143" width="2.78571" height="2.78571" fill="#050009"/>
<rect x="8.35742" width="2.78571" height="2.78571" fill="#050009"/>
<rect x="11.1426" y="2.78571" width="2.78571" height="2.78571" fill="#F2AA18"/>
<rect x="11.1426" y="5.57141" width="2.78571" height="2.78571" fill="#F2AA18"/>
<rect x="11.1426" y="8.35712" width="2.78571" height="2.78571" fill="#F2AA18"/>
<rect x="11.1426" y="11.1429" width="2.78571" height="2.78571" fill="#F2AA18"/>
<rect x="11.1426" y="13.9286" width="2.78571" height="2.78571" fill="#F2AA18"/>
<rect x="11.1426" y="16.7143" width="2.78571" height="2.78571" fill="#F2AA18"/>
<rect x="11.1426" y="19.5" width="2.78571" height="2.78571" fill="#F2AA18"/>
<rect x="11.1426" y="22.2857" width="2.78571" height="2.78571" fill="#F2AA18"/>
<rect x="11.1426" y="25.0714" width="2.78571" height="2.78571" fill="#F2AA18"/>
<rect x="11.1426" y="27.8571" width="2.78571" height="2.78571" fill="#F2AA18"/>
<rect x="11.1426" y="30.6429" width="2.78571" height="2.78571" fill="#B7620F"/>
<rect x="11.1426" y="33.4286" width="2.78571" height="2.78571" fill="#B7620F"/>
<rect x="11.1426" y="36.2143" width="2.78571" height="2.78571" fill="#050009"/>
<rect x="11.1426" width="2.78571" height="2.78571" fill="#050009"/>
<rect x="13.9287" y="2.78571" width="2.78571" height="2.78571" fill="#F2AA18"/>
<rect x="13.9287" y="5.57141" width="2.78571" height="2.78571" fill="#F2AA18"/>
<rect x="13.9287" y="8.35712" width="2.78571" height="2.78571" fill="#F2AA18"/>
<rect x="13.9287" y="11.1429" width="2.78571" height="2.78571" fill="#F2AA18"/>
<rect x="13.9287" y="13.9286" width="2.78571" height="2.78571" fill="#F2AA18"/>
<rect x="13.9287" y="16.7143" width="2.78571" height="2.78571" fill="#F2AA18"/>
<rect x="13.9287" y="19.5" width="2.78571" height="2.78571" fill="#F2AA18"/>
<rect x="13.9287" y="22.2857" width="2.78571" height="2.78571" fill="#F2AA18"/>
<rect x="13.9287" y="25.0714" width="2.78571" height="2.78571" fill="#F2AA18"/>
<rect x="13.9287" y="27.8571" width="2.78571" height="2.78571" fill="#F2AA18"/>
<rect x="13.9287" y="30.6429" width="2.78571" height="2.78571" fill="#B7620F"/>
<rect x="13.9287" y="33.4286" width="2.78571" height="2.78571" fill="#B7620F"/>
<rect x="13.9287" y="36.2143" width="2.78571" height="2.78571" fill="#050009"/>
<rect x="13.9287" width="2.78571" height="2.78571" fill="#050009"/>
<rect x="16.7139" y="2.78571" width="2.78571" height="2.78571" fill="#F2AA18"/>
<rect x="16.7139" y="5.57141" width="2.78571" height="2.78571" fill="#F2AA18"/>
<rect x="16.7139" y="8.35712" width="2.78571" height="2.78571" fill="#F2AA18"/>
<rect x="16.7139" y="11.1429" width="2.78571" height="2.78571" fill="#F2AA18"/>
<rect x="16.7139" y="13.9286" width="2.78571" height="2.78571" fill="#F2AA18"/>
<rect x="16.7139" y="16.7143" width="2.78571" height="2.78571" fill="#F2AA18"/>
<rect x="16.7139" y="19.5" width="2.78571" height="2.78571" fill="#F2AA18"/>
<rect x="16.7139" y="22.2857" width="2.78571" height="2.78571" fill="#F2AA18"/>
<rect x="16.7139" y="25.0714" width="2.78571" height="2.78571" fill="#F2AA18"/>
<rect x="16.7139" y="27.8571" width="2.78571" height="2.78571" fill="#F2AA18"/>
<rect x="16.7139" y="30.6429" width="2.78571" height="2.78571" fill="#B7620F"/>
<rect x="16.7139" y="33.4286" width="2.78571" height="2.78571" fill="#B7620F"/>
<rect x="16.7139" y="36.2143" width="2.78571" height="2.78571" fill="#050009"/>
<rect x="16.7139" width="2.78571" height="2.78571" fill="#050009"/>
<rect x="19.5" y="2.78571" width="2.78571" height="2.78571" fill="#F2AA18"/>
<rect x="19.5" y="5.57141" width="2.78571" height="2.78571" fill="#F2AA18"/>
<rect x="19.5" y="8.35712" width="2.78571" height="2.78571" fill="#F2AA18"/>
<rect x="19.5" y="11.1429" width="2.78571" height="2.78571" fill="#F2AA18"/>
<rect x="19.5" y="13.9286" width="2.78571" height="2.78571" fill="#F2AA18"/>
<rect x="19.5" y="16.7143" width="2.78571" height="2.78571" fill="#F2AA18"/>
<rect x="19.5" y="19.5" width="2.78571" height="2.78571" fill="#F2AA18"/>
<rect x="19.5" y="22.2857" width="2.78571" height="2.78571" fill="#F2AA18"/>
<rect x="19.5" y="25.0714" width="2.78571" height="2.78571" fill="#F2AA18"/>
<rect x="19.5" y="27.8571" width="2.78571" height="2.78571" fill="#F2AA18"/>
<rect x="19.5" y="30.6429" width="2.78571" height="2.78571" fill="#B7620F"/>
<rect x="19.5" y="33.4286" width="2.78571" height="2.78571" fill="#B7620F"/>
<rect x="19.5" y="36.2143" width="2.78571" height="2.78571" fill="#050009"/>
<rect x="19.5" width="2.78571" height="2.78571" fill="#050009"/>
<rect x="22.2861" y="2.78571" width="2.78571" height="2.78571" fill="#F2AA18"/>
<rect x="22.2861" y="5.57141" width="2.78571" height="2.78571" fill="#F2AA18"/>
<rect x="22.2861" y="8.35712" width="2.78571" height="2.78571" fill="#F2AA18"/>
<rect x="22.2861" y="11.1429" width="2.78571" height="2.78571" fill="#F2AA18"/>
<rect x="22.2861" y="13.9286" width="2.78571" height="2.78571" fill="#F2AA18"/>
<rect x="22.2861" y="16.7143" width="2.78571" height="2.78571" fill="#F2AA18"/>
<rect x="22.2861" y="19.5" width="2.78571" height="2.78571" fill="#F2AA18"/>
<rect x="22.2861" y="22.2857" width="2.78571" height="2.78571" fill="#F2AA18"/>
<rect x="22.2861" y="25.0714" width="2.78571" height="2.78571" fill="#F2AA18"/>
<rect x="22.2861" y="27.8571" width="2.78571" height="2.78571" fill="#F2AA18"/>
<rect x="22.2861" y="30.6429" width="2.78571" height="2.78571" fill="#B7620F"/>
<rect x="22.2861" y="33.4286" width="2.78571" height="2.78571" fill="#B7620F"/>
<rect x="22.2861" y="36.2143" width="2.78571" height="2.78571" fill="#050009"/>
<rect x="22.2861" width="2.78571" height="2.78571" fill="#050009"/>
<rect x="25.0713" y="2.78571" width="2.78571" height="2.78571" fill="#F2AA18"/>
<rect x="25.0713" y="5.57141" width="2.78571" height="2.78571" fill="#F2AA18"/>
<rect x="25.0713" y="8.35712" width="2.78571" height="2.78571" fill="#F2AA18"/>
<rect x="25.0713" y="11.1429" width="2.78571" height="2.78571" fill="#F2AA18"/>
<rect x="25.0713" y="13.9286" width="2.78571" height="2.78571" fill="#F2AA18"/>
<rect x="25.0713" y="16.7143" width="2.78571" height="2.78571" fill="#F2AA18"/>
<rect x="25.0713" y="19.5" width="2.78571" height="2.78571" fill="#F2AA18"/>
<rect x="25.0713" y="22.2857" width="2.78571" height="2.78571" fill="#F2AA18"/>
<rect x="25.0713" y="25.0714" width="2.78571" height="2.78571" fill="#F2AA18"/>
<rect x="25.0713" y="27.8571" width="2.78571" height="2.78571" fill="#F2AA18"/>
<rect x="25.0713" y="30.6429" width="2.78571" height="2.78571" fill="#B7620F"/>
<rect x="25.0713" y="33.4286" width="2.78571" height="2.78571" fill="#B7620F"/>
<rect x="25.0713" y="36.2143" width="2.78571" height="2.78571" fill="#050009"/>
<rect x="25.0713" width="2.78571" height="2.78571" fill="#050009"/>
<rect x="27.8574" y="2.78571" width="2.78571" height="2.78571" fill="#F2AA18"/>
<rect x="27.8574" y="5.57141" width="2.78571" height="2.78571" fill="#F2AA18"/>
<rect x="30.6426" y="5.57141" width="2.78571" height="2.78571" fill="#F2AA18"/>
<rect x="5.57129" y="5.57141" width="2.78571" height="2.78571" fill="#F2AA18"/>
<rect x="30.6426" y="11.1429" width="2.78571" height="2.78571" fill="#F2AA18"/>
<rect x="5.57129" y="11.1429" width="2.78571" height="2.78571" fill="#F2AA18"/>
<rect x="30.6426" y="16.7143" width="2.78571" height="2.78571" fill="#F2AA18"/>
<rect x="5.57129" y="16.7143" width="2.78571" height="2.78571" fill="#F2AA18"/>
<rect x="30.6426" y="22.2857" width="2.78571" height="2.78571" fill="#F2AA18"/>
<rect x="5.57129" y="22.2857" width="2.78571" height="2.78571" fill="#F2AA18"/>
<rect x="30.6426" y="8.35712" width="2.78571" height="2.78571" fill="#F2AA18"/>
<rect x="5.57129" y="8.35712" width="2.78571" height="2.78571" fill="#F2AA18"/>
<rect x="33.4287" y="8.35712" width="2.78571" height="2.78571" fill="#F2AA18"/>
<rect x="2.78613" y="8.35712" width="2.78571" height="2.78571" fill="#F2AA18"/>
<rect y="8.35712" width="2.78571" height="2.78571" fill="#050009"/>
<rect x="36.2139" y="8.35712" width="2.78571" height="2.78571" fill="#050009"/>
<rect x="33.4287" y="13.9286" width="2.78571" height="2.78571" fill="#F2AA18"/>
<rect x="2.78613" y="13.9286" width="2.78571" height="2.78571" fill="#F2AA18"/>
<rect y="13.9286" width="2.78571" height="2.78571" fill="#050009"/>
<rect x="36.2139" y="13.9286" width="2.78571" height="2.78571" fill="#050009"/>
<rect x="33.4287" y="19.5" width="2.78571" height="2.78571" fill="#F2AA18"/>
<rect x="2.78613" y="19.5" width="2.78571" height="2.78571" fill="#F2AA18"/>
<rect y="19.5" width="2.78571" height="2.78571" fill="#050009"/>
<rect x="36.2139" y="19.5" width="2.78571" height="2.78571" fill="#050009"/>
<rect y="25.0714" width="2.78571" height="2.78571" fill="#050009"/>
<rect x="36.2139" y="25.0714" width="2.78571" height="2.78571" fill="#050009"/>
<rect x="33.4287" y="11.1429" width="2.78571" height="2.78571" fill="#F2AA18"/>
<rect x="2.78613" y="11.1429" width="2.78571" height="2.78571" fill="#F2AA18"/>
<rect y="11.1429" width="2.78571" height="2.78571" fill="#050009"/>
<rect x="36.2139" y="11.1429" width="2.78571" height="2.78571" fill="#050009"/>
<rect x="33.4287" y="16.7143" width="2.78571" height="2.78571" fill="#F2AA18"/>
<rect x="2.78613" y="16.7143" width="2.78571" height="2.78571" fill="#F2AA18"/>
<rect y="16.7143" width="2.78571" height="2.78571" fill="#050009"/>
<rect x="36.2139" y="16.7143" width="2.78571" height="2.78571" fill="#050009"/>
<rect x="33.4287" y="22.2857" width="2.78571" height="2.78571" fill="#F2AA18"/>
<rect x="2.78613" y="22.2857" width="2.78571" height="2.78571" fill="#F2AA18"/>
<rect y="22.2857" width="2.78571" height="2.78571" fill="#050009"/>
<rect x="36.2139" y="22.2857" width="2.78571" height="2.78571" fill="#050009"/>
<rect y="27.8571" width="2.78571" height="2.78571" fill="#050009"/>
<rect x="36.2139" y="27.8571" width="2.78571" height="2.78571" fill="#050009"/>
<rect x="2.78613" y="25.0714" width="2.78571" height="2.78571" fill="#B7620F"/>
<rect x="33.4287" y="25.0714" width="2.78571" height="2.78571" fill="#B7620F"/>
<rect x="30.6426" y="13.9286" width="2.78571" height="2.78571" fill="#F2AA18"/>
<rect x="5.57129" y="13.9286" width="2.78571" height="2.78571" fill="#F2AA18"/>
<rect x="30.6426" y="19.5" width="2.78571" height="2.78571" fill="#F2AA18"/>
<rect x="5.57129" y="19.5" width="2.78571" height="2.78571" fill="#F2AA18"/>
<rect x="30.6426" y="25.0714" width="2.78571" height="2.78571" fill="#F2AA18"/>
<rect x="5.57129" y="25.0714" width="2.78571" height="2.78571" fill="#F2AA18"/>
<rect x="5.57129" y="27.8571" width="2.78571" height="2.78571" fill="#B7620F"/>
<rect x="5.57129" y="30.6429" width="2.78571" height="2.78571" fill="#B7620F"/>
<rect x="30.6426" y="30.6429" width="2.78571" height="2.78571" fill="#B7620F"/>
<rect x="2.78613" y="27.8571" width="2.78571" height="2.78571" fill="#B7620F"/>
<rect x="33.4287" y="27.8571" width="2.78571" height="2.78571" fill="#B7620F"/>
<rect x="5.57129" y="33.4286" width="2.78571" height="2.78571" fill="#050009"/>
<rect x="5.57129" y="2.78571" width="2.78571" height="2.78571" fill="#050009"/>
<rect x="30.6426" y="2.78571" width="2.78571" height="2.78571" fill="#050009"/>
<rect x="30.6426" y="33.4286" width="2.78571" height="2.78571" fill="#050009"/>
<rect x="2.78613" y="30.6429" width="2.78571" height="2.78571" fill="#050009"/>
<rect x="2.78613" y="5.57141" width="2.78571" height="2.78571" fill="#050009"/>
<rect x="33.4287" y="5.57141" width="2.78571" height="2.78571" fill="#050009"/>
<rect x="33.4287" y="30.6429" width="2.78571" height="2.78571" fill="#050009"/>
<rect x="30.6426" y="27.8571" width="2.78571" height="2.78571" fill="#B7620F"/>
<rect x="27.8574" y="8.35712" width="2.78571" height="2.78571" fill="#F2AA18"/>
<rect x="27.8574" y="11.1429" width="2.78571" height="2.78571" fill="#F2AA18"/>
<rect x="27.8574" y="13.9286" width="2.78571" height="2.78571" fill="#F2AA18"/>
<rect x="27.8574" y="16.7143" width="2.78571" height="2.78571" fill="#F2AA18"/>
<rect x="27.8574" y="19.5" width="2.78571" height="2.78571" fill="#F2AA18"/>
<rect x="27.8574" y="22.2857" width="2.78571" height="2.78571" fill="#F2AA18"/>
<rect x="27.8574" y="25.0714" width="2.78571" height="2.78571" fill="#F2AA18"/>
<rect x="27.8574" y="27.8571" width="2.78571" height="2.78571" fill="#F2AA18"/>
<rect x="27.8574" y="30.6429" width="2.78571" height="2.78571" fill="#B7620F"/>
<rect x="27.8574" y="33.4286" width="2.78571" height="2.78571" fill="#B7620F"/>
<rect x="27.8574" y="36.2143" width="2.78571" height="2.78571" fill="#050009"/>
<rect x="27.8574" width="2.78571" height="2.78571" fill="#050009"/>
<rect x="11.2217" y="14.8889" width="2.22222" height="2.22222" fill="white"/>
<rect x="24.5557" y="14.8889" width="2.22222" height="2.22222" fill="#E1E4F5"/>
<rect x="15.666" y="12.667" width="2.22222" height="2.22222" fill="white"/>
<rect x="15.666" y="10.4451" width="2.22222" height="2.22222" fill="white"/>
<rect x="15.666" y="14.8889" width="2.22222" height="2.22222" fill="white"/>
<rect x="15.666" y="17.1118" width="2.22222" height="2.22222" fill="white"/>
<rect x="15.666" y="19.3336" width="2.22222" height="2.22222" fill="white"/>
<rect x="20.1094" y="12.667" width="2.22222" height="2.22222" fill="white"/>
<rect x="20.1094" y="10.4451" width="2.22222" height="2.22222" fill="#E1E4F5"/>
<rect x="20.1094" y="14.8889" width="2.22222" height="2.22222" fill="white"/>
<rect x="20.1094" y="17.1118" width="2.22222" height="2.22222" fill="white"/>
<rect x="20.1094" y="19.3336" width="2.22222" height="2.22222" fill="white"/>
<rect x="22.332" y="12.667" width="2.22222" height="2.22222" fill="#E1E4F5"/>
<rect x="22.332" y="14.8889" width="2.22222" height="2.22222" fill="white"/>
<rect x="22.332" y="17.1118" width="2.22222" height="2.22222" fill="white"/>
<rect x="22.332" y="19.3336" width="2.22222" height="2.22222" fill="white"/>
<rect x="13.4424" y="12.667" width="2.22222" height="2.22222" fill="white"/>
<rect x="13.4424" y="14.8889" width="2.22222" height="2.22222" fill="white"/>
<rect x="13.4424" y="17.1118" width="2.22222" height="2.22222" fill="white"/>
<rect x="13.4424" y="19.3336" width="2.22222" height="2.22222" fill="white"/>
<rect x="17.8887" y="12.667" width="2.22222" height="2.22222" fill="white"/>
<rect x="17.8887" y="10.4451" width="2.22222" height="2.22222" fill="white"/>
<rect x="17.8887" y="8.22223" width="2.22222" height="2.22222" fill="#E1E4F5"/>
<rect x="17.8887" y="6.00031" width="2.22222" height="2.22222" fill="#060002"/>
<rect x="20.1094" y="8.22223" width="2.22222" height="2.22222" fill="#060002"/>
<rect x="22.332" y="10.4451" width="2.22222" height="2.22222" fill="#060002"/>
<rect x="24.5557" y="12.667" width="2.22222" height="2.22222" fill="#060002"/>
<rect x="26.7764" y="14.8889" width="2.22222" height="2.22222" fill="#060002"/>
<rect x="8.99902" y="14.8889" width="2.22222" height="2.22222" fill="#060002"/>
<rect x="24.5557" y="17.1118" width="2.22222" height="2.22222" fill="#060002"/>
<rect x="11.2217" y="17.1118" width="2.22222" height="2.22222" fill="#060002"/>
<rect x="24.5557" y="19.3336" width="2.22222" height="2.22222" fill="#060002"/>
<rect x="24.5557" y="21.5555" width="2.22222" height="2.22222" fill="#060002"/>
<rect x="11.2217" y="19.3336" width="2.22222" height="2.22222" fill="#060002"/>
<rect x="11.2217" y="21.5555" width="2.22222" height="2.22222" fill="#060002"/>
<rect x="11.2217" y="23.7784" width="2.22222" height="2.22222" fill="#060002"/>
<rect x="13.4424" y="23.7784" width="2.22222" height="2.22222" fill="#060002"/>
<rect x="20.1094" y="23.7784" width="2.22222" height="2.22222" fill="#060002"/>
<rect x="15.666" y="23.7784" width="2.22222" height="2.22222" fill="#060002"/>
<rect x="22.332" y="23.7784" width="2.22222" height="2.22222" fill="#060002"/>
<rect x="24.5557" y="23.7784" width="2.22222" height="2.22222" fill="#060002"/>
<rect x="15.666" y="8.22223" width="2.22222" height="2.22222" fill="#060002"/>
<rect x="13.4424" y="10.4451" width="2.22222" height="2.22222" fill="#060002"/>
<rect x="11.2217" y="12.667" width="2.22222" height="2.22222" fill="#060002"/>
<rect x="17.8887" y="21.5555" width="2.22222" height="2.22222" fill="#060002"/>
<rect x="17.8887" y="14.8889" width="2.22222" height="2.22222" fill="white"/>
<rect x="17.8887" y="17.1118" width="2.22222" height="2.22222" fill="white"/>
<rect x="17.8887" y="19.3336" width="2.22222" height="2.22222" fill="#060002"/>
<rect x="22.332" y="21.5555" width="2.22222" height="2.22222" fill="#E1E4F5"/>
<rect x="15.666" y="21.5555" width="2.22222" height="2.22222" fill="#E1E4F5"/>
<rect x="20.1094" y="21.5555" width="2.22222" height="2.22222" fill="#E1E4F5"/>
<rect x="13.4424" y="21.5555" width="2.22222" height="2.22222" fill="#E1E4F5"/>
</svg>
