<svg width="20" height="32" viewBox="0 0 20 32" fill="none" xmlns="http://www.w3.org/2000/svg">
<path d="M1.48151 26.6359V3.14453H3.33336V4.99424H5.00002V6.47401H6.66669V8.32372H8.33336V9.98846H10V11.6532H11.6667V13.3179H13.3334V14.9827H15V16.6474H16.6667V18.3122H18.3334V20.1619H11.6667V23.4914H13.5185V26.6359H15.1852V30.1503H11.4815V26.6359H9.81484V23.6763H8.14817V21.8266H6.4815V23.6763H5.00002V25.1561H3.33336V26.6359H1.48151Z" fill="white"/>
<path fill-rule="evenodd" clip-rule="evenodd" d="M0 0H1.48148V28.4855H0V0ZM1.48151 1.66475H3.33336V3.1445H4.99998V4.99421H3.33331V3.14452H1.48151V1.66475ZM5 4.99421H6.66667V6.47398H5V4.99421ZM9.99998 8.50865H8.33331V9.98841H9.99998V8.50865ZM10 9.98843H11.6667V11.6532H10V9.98843ZM13.3334 11.6532H11.6667V13.3179H13.3334V11.6532ZM13.3333 13.3179H15V14.9827H13.3333V13.3179ZM16.6667 14.9827H15V16.6474H16.6667L16.6667 18.3121H18.3333V16.6474H16.6667L16.6667 14.9827ZM18.3333 18.3121H20V20.1618H18.3333V18.3121ZM20 20.1619H11.6667V21.8266V21.8266V23.4913H13.5185V21.8266H20V20.1619ZM15.1852 23.4913H13.5185V26.6358H15.1852V23.4913ZM8.14816 23.6763H9.81483L9.81482 26.6359H11.4815V30.1503H9.81482L9.81483 26.8208H8.14816V23.6763ZM8.14814 21.8266H6.48148V23.6763H8.14814V21.8266ZM5 23.6763H6.48148V25.1561H5V23.6763ZM3.33336 26.6359H1.48151V28.4856H3.33336V26.6359ZM3.33331 25.1561H4.99998V26.6358H3.33331V25.1561ZM16.8518 26.6359H15.1852V30.1503H16.8518V26.6359ZM15.1852 30.1503H11.4815V32H15.1852V30.1503ZM8.33335 6.47397H6.66669V8.32368H8.33335V6.47397Z" fill="#0F0F0F"/>
</svg>
