<svg width="39" height="39" viewBox="0 0 39 39" fill="none" xmlns="http://www.w3.org/2000/svg">
<rect x="8.35718" y="2.78571" width="2.78571" height="2.78571" fill="#F56571"/>
<rect x="8.35718" y="5.57141" width="2.78571" height="2.78571" fill="#F56571"/>
<rect x="8.35718" y="8.35712" width="2.78571" height="2.78571" fill="#F56571"/>
<rect x="8.35718" y="11.1429" width="2.78571" height="2.78571" fill="#F56571"/>
<rect x="8.35718" y="13.9286" width="2.78571" height="2.78571" fill="#F56571"/>
<rect x="8.35718" y="16.7143" width="2.78571" height="2.78571" fill="#F56571"/>
<rect x="8.35718" y="19.5" width="2.78571" height="2.78571" fill="#F56571"/>
<rect x="8.35718" y="22.2857" width="2.78571" height="2.78571" fill="#F56571"/>
<rect x="8.35718" y="25.0714" width="2.78571" height="2.78571" fill="#F56571"/>
<rect x="8.35718" y="27.8571" width="2.78571" height="2.78571" fill="#F56571"/>
<rect x="8.35718" y="30.6429" width="2.78571" height="2.78571" fill="#ECEDCD"/>
<rect x="8.35718" y="33.4286" width="2.78571" height="2.78571" fill="#803239"/>
<rect x="8.35718" y="36.2143" width="2.78571" height="2.78571" fill="#050009"/>
<rect x="8.35718" width="2.78571" height="2.78571" fill="#050009"/>
<rect x="11.1428" y="2.78571" width="2.78571" height="2.78571" fill="#F56571"/>
<rect x="11.1428" y="5.57141" width="2.78571" height="2.78571" fill="#F56571"/>
<rect x="11.1428" y="8.35712" width="2.78571" height="2.78571" fill="#F56571"/>
<rect x="11.1428" y="11.1429" width="2.78571" height="2.78571" fill="#F56571"/>
<rect x="11.1428" y="13.9286" width="2.78571" height="2.78571" fill="#F56571"/>
<rect x="11.1428" y="16.7143" width="2.78571" height="2.78571" fill="#F56571"/>
<rect x="11.1428" y="19.5" width="2.78571" height="2.78571" fill="#F56571"/>
<rect x="11.1428" y="22.2857" width="2.78571" height="2.78571" fill="#F56571"/>
<rect x="11.1428" y="25.0714" width="2.78571" height="2.78571" fill="#F56571"/>
<rect x="11.1428" y="27.8571" width="2.78571" height="2.78571" fill="#F56571"/>
<rect x="11.1428" y="30.6429" width="2.78571" height="2.78571" fill="#ECEDCD"/>
<rect x="11.1428" y="33.4286" width="2.78571" height="2.78571" fill="#803239"/>
<rect x="11.1428" y="36.2143" width="2.78571" height="2.78571" fill="#050009"/>
<rect x="11.1428" width="2.78571" height="2.78571" fill="#050009"/>
<rect x="13.9285" y="2.78571" width="2.78571" height="2.78571" fill="#F56571"/>
<rect x="13.9285" y="5.57141" width="2.78571" height="2.78571" fill="#F56571"/>
<rect x="13.9285" y="8.35712" width="2.78571" height="2.78571" fill="#F56571"/>
<rect x="13.9285" y="11.1429" width="2.78571" height="2.78571" fill="#F56571"/>
<rect x="13.9285" y="13.9286" width="2.78571" height="2.78571" fill="#F56571"/>
<rect x="13.9285" y="16.7143" width="2.78571" height="2.78571" fill="#F56571"/>
<rect x="13.9285" y="19.5" width="2.78571" height="2.78571" fill="#F56571"/>
<rect x="13.9285" y="22.2857" width="2.78571" height="2.78571" fill="#F56571"/>
<rect x="13.9285" y="25.0714" width="2.78571" height="2.78571" fill="#F56571"/>
<rect x="13.9285" y="27.8571" width="2.78571" height="2.78571" fill="#F56571"/>
<rect x="13.9285" y="30.6429" width="2.78571" height="2.78571" fill="#ECEDCD"/>
<rect x="13.9285" y="33.4286" width="2.78571" height="2.78571" fill="#803239"/>
<rect x="13.9285" y="36.2143" width="2.78571" height="2.78571" fill="#050009"/>
<rect x="13.9285" width="2.78571" height="2.78571" fill="#050009"/>
<rect x="16.7144" y="2.78571" width="2.78571" height="2.78571" fill="#F56571"/>
<rect x="16.7144" y="5.57141" width="2.78571" height="2.78571" fill="#F56571"/>
<rect x="16.7144" y="8.35712" width="2.78571" height="2.78571" fill="#F56571"/>
<rect x="16.7144" y="11.1429" width="2.78571" height="2.78571" fill="#F56571"/>
<rect x="16.7144" y="13.9286" width="2.78571" height="2.78571" fill="#F56571"/>
<rect x="16.7144" y="16.7143" width="2.78571" height="2.78571" fill="#F56571"/>
<rect x="16.7144" y="19.5" width="2.78571" height="2.78571" fill="#F56571"/>
<rect x="16.7144" y="22.2857" width="2.78571" height="2.78571" fill="#F56571"/>
<rect x="16.7144" y="25.0714" width="2.78571" height="2.78571" fill="#F56571"/>
<rect x="16.7144" y="27.8571" width="2.78571" height="2.78571" fill="#F56571"/>
<rect x="16.7144" y="30.6429" width="2.78571" height="2.78571" fill="#ECEDCD"/>
<rect x="16.7144" y="33.4286" width="2.78571" height="2.78571" fill="#803239"/>
<rect x="16.7144" y="36.2143" width="2.78571" height="2.78571" fill="#050009"/>
<rect x="16.7144" width="2.78571" height="2.78571" fill="#050009"/>
<rect x="19.5" y="2.78571" width="2.78571" height="2.78571" fill="#F56571"/>
<rect x="19.5" y="5.57141" width="2.78571" height="2.78571" fill="#F56571"/>
<rect x="19.5" y="8.35712" width="2.78571" height="2.78571" fill="#F56571"/>
<rect x="19.5" y="11.1429" width="2.78571" height="2.78571" fill="#F56571"/>
<rect x="19.5" y="13.9286" width="2.78571" height="2.78571" fill="#F56571"/>
<rect x="19.5" y="16.7143" width="2.78571" height="2.78571" fill="#F56571"/>
<rect x="19.5" y="19.5" width="2.78571" height="2.78571" fill="#F56571"/>
<rect x="19.5" y="22.2857" width="2.78571" height="2.78571" fill="#F56571"/>
<rect x="19.5" y="25.0714" width="2.78571" height="2.78571" fill="#F56571"/>
<rect x="19.5" y="27.8571" width="2.78571" height="2.78571" fill="#F56571"/>
<rect x="19.5" y="30.6429" width="2.78571" height="2.78571" fill="#ECEDCD"/>
<rect x="19.5" y="33.4286" width="2.78571" height="2.78571" fill="#803239"/>
<rect x="19.5" y="36.2143" width="2.78571" height="2.78571" fill="#050009"/>
<rect x="19.5" width="2.78571" height="2.78571" fill="#050009"/>
<rect x="22.2856" y="2.78571" width="2.78571" height="2.78571" fill="#F56571"/>
<rect x="22.2856" y="5.57141" width="2.78571" height="2.78571" fill="#F56571"/>
<rect x="22.2856" y="8.35712" width="2.78571" height="2.78571" fill="#F56571"/>
<rect x="22.2856" y="11.1429" width="2.78571" height="2.78571" fill="#F56571"/>
<rect x="22.2856" y="13.9286" width="2.78571" height="2.78571" fill="#F56571"/>
<rect x="22.2856" y="16.7143" width="2.78571" height="2.78571" fill="#F56571"/>
<rect x="22.2856" y="19.5" width="2.78571" height="2.78571" fill="#F56571"/>
<rect x="22.2856" y="22.2857" width="2.78571" height="2.78571" fill="#F56571"/>
<rect x="22.2856" y="25.0714" width="2.78571" height="2.78571" fill="#F56571"/>
<rect x="22.2856" y="27.8571" width="2.78571" height="2.78571" fill="#F56571"/>
<rect x="22.2856" y="30.6429" width="2.78571" height="2.78571" fill="#ECEDCD"/>
<rect x="22.2856" y="33.4286" width="2.78571" height="2.78571" fill="#803239"/>
<rect x="22.2856" y="36.2143" width="2.78571" height="2.78571" fill="#050009"/>
<rect x="22.2856" width="2.78571" height="2.78571" fill="#050009"/>
<rect x="25.0715" y="2.78571" width="2.78571" height="2.78571" fill="#F56571"/>
<rect x="25.0715" y="5.57141" width="2.78571" height="2.78571" fill="#F56571"/>
<rect x="25.0715" y="8.35712" width="2.78571" height="2.78571" fill="#F56571"/>
<rect x="25.0715" y="11.1429" width="2.78571" height="2.78571" fill="#F56571"/>
<rect x="25.0715" y="13.9286" width="2.78571" height="2.78571" fill="#F56571"/>
<rect x="25.0715" y="16.7143" width="2.78571" height="2.78571" fill="#F56571"/>
<rect x="25.0715" y="19.5" width="2.78571" height="2.78571" fill="#F56571"/>
<rect x="25.0715" y="22.2857" width="2.78571" height="2.78571" fill="#F56571"/>
<rect x="25.0715" y="25.0714" width="2.78571" height="2.78571" fill="#F56571"/>
<rect x="25.0715" y="27.8571" width="2.78571" height="2.78571" fill="#F56571"/>
<rect x="25.0715" y="30.6429" width="2.78571" height="2.78571" fill="#ECEDCD"/>
<rect x="25.0715" y="33.4286" width="2.78571" height="2.78571" fill="#803239"/>
<rect x="25.0715" y="36.2143" width="2.78571" height="2.78571" fill="#050009"/>
<rect x="25.0715" width="2.78571" height="2.78571" fill="#050009"/>
<rect x="27.8572" y="2.78571" width="2.78571" height="2.78571" fill="#F56571"/>
<rect x="27.8572" y="5.57141" width="2.78571" height="2.78571" fill="#F56571"/>
<rect x="30.6428" y="5.57141" width="2.78571" height="2.78571" fill="#F56571"/>
<rect x="5.57153" y="5.57141" width="2.78571" height="2.78571" fill="#F56571"/>
<rect x="30.6428" y="11.1429" width="2.78571" height="2.78571" fill="#F56571"/>
<rect x="5.57153" y="11.1429" width="2.78571" height="2.78571" fill="#F56571"/>
<rect x="30.6428" y="16.7143" width="2.78571" height="2.78571" fill="#F56571"/>
<rect x="5.57153" y="16.7143" width="2.78571" height="2.78571" fill="#F56571"/>
<rect x="30.6428" y="22.2857" width="2.78571" height="2.78571" fill="#F56571"/>
<rect x="5.57153" y="22.2857" width="2.78571" height="2.78571" fill="#F56571"/>
<rect x="30.6428" y="8.35712" width="2.78571" height="2.78571" fill="#F56571"/>
<rect x="5.57153" y="8.35712" width="2.78571" height="2.78571" fill="#F56571"/>
<rect x="33.4285" y="8.35712" width="2.78571" height="2.78571" fill="#F56571"/>
<rect x="2.78564" y="8.35712" width="2.78571" height="2.78571" fill="#F56571"/>
<rect y="8.35712" width="2.78571" height="2.78571" fill="#050009"/>
<rect x="36.2144" y="8.35712" width="2.78571" height="2.78571" fill="#050009"/>
<rect x="33.4285" y="13.9286" width="2.78571" height="2.78571" fill="#F56571"/>
<rect x="2.78564" y="13.9286" width="2.78571" height="2.78571" fill="#F56571"/>
<rect y="13.9286" width="2.78571" height="2.78571" fill="#050009"/>
<rect x="36.2144" y="13.9286" width="2.78571" height="2.78571" fill="#050009"/>
<rect x="33.4285" y="19.5" width="2.78571" height="2.78571" fill="#F56571"/>
<rect x="2.78564" y="19.5" width="2.78571" height="2.78571" fill="#F56571"/>
<rect y="19.5" width="2.78571" height="2.78571" fill="#050009"/>
<rect x="36.2144" y="19.5" width="2.78571" height="2.78571" fill="#050009"/>
<rect y="25.0714" width="2.78571" height="2.78571" fill="#050009"/>
<rect x="36.2144" y="25.0714" width="2.78571" height="2.78571" fill="#050009"/>
<rect x="33.4285" y="11.1429" width="2.78571" height="2.78571" fill="#F56571"/>
<rect x="2.78564" y="11.1429" width="2.78571" height="2.78571" fill="#F56571"/>
<rect y="11.1429" width="2.78571" height="2.78571" fill="#050009"/>
<rect x="36.2144" y="11.1429" width="2.78571" height="2.78571" fill="#050009"/>
<rect x="33.4285" y="16.7143" width="2.78571" height="2.78571" fill="#F56571"/>
<rect x="2.78564" y="16.7143" width="2.78571" height="2.78571" fill="#F56571"/>
<rect y="16.7143" width="2.78571" height="2.78571" fill="#050009"/>
<rect x="36.2144" y="16.7143" width="2.78571" height="2.78571" fill="#050009"/>
<rect x="33.4285" y="22.2857" width="2.78571" height="2.78571" fill="#F56571"/>
<rect x="2.78564" y="22.2857" width="2.78571" height="2.78571" fill="#F56571"/>
<rect y="22.2857" width="2.78571" height="2.78571" fill="#050009"/>
<rect x="36.2144" y="22.2857" width="2.78571" height="2.78571" fill="#050009"/>
<rect y="27.8571" width="2.78571" height="2.78571" fill="#050009"/>
<rect x="36.2144" y="27.8571" width="2.78571" height="2.78571" fill="#050009"/>
<rect x="2.78564" y="25.0714" width="2.78571" height="2.78571" fill="#ECEDCD"/>
<rect x="33.4285" y="25.0714" width="2.78571" height="2.78571" fill="#ECEDCD"/>
<rect x="30.6428" y="13.9286" width="2.78571" height="2.78571" fill="#F56571"/>
<rect x="5.57153" y="13.9286" width="2.78571" height="2.78571" fill="#F56571"/>
<rect x="30.6428" y="19.5" width="2.78571" height="2.78571" fill="#F56571"/>
<rect x="5.57153" y="19.5" width="2.78571" height="2.78571" fill="#F56571"/>
<rect x="30.6428" y="25.0714" width="2.78571" height="2.78571" fill="#F56571"/>
<rect x="5.57153" y="25.0714" width="2.78571" height="2.78571" fill="#F56571"/>
<rect x="5.57153" y="27.8571" width="2.78571" height="2.78571" fill="#ECEDCD"/>
<rect x="5.57153" y="30.6429" width="2.78571" height="2.78571" fill="#803239"/>
<rect x="30.6428" y="30.6429" width="2.78571" height="2.78571" fill="#803239"/>
<rect x="2.78564" y="27.8571" width="2.78571" height="2.78571" fill="#803239"/>
<rect x="33.4285" y="27.8571" width="2.78571" height="2.78571" fill="#803239"/>
<rect x="5.57153" y="33.4286" width="2.78571" height="2.78571" fill="#050009"/>
<rect x="5.57153" y="2.78571" width="2.78571" height="2.78571" fill="#050009"/>
<rect x="30.6428" y="2.78571" width="2.78571" height="2.78571" fill="#050009"/>
<rect x="30.6428" y="33.4286" width="2.78571" height="2.78571" fill="#050009"/>
<rect x="2.78564" y="30.6429" width="2.78571" height="2.78571" fill="#050009"/>
<rect x="2.78564" y="5.57141" width="2.78571" height="2.78571" fill="#050009"/>
<rect x="33.4285" y="5.57141" width="2.78571" height="2.78571" fill="#050009"/>
<rect x="33.4285" y="30.6429" width="2.78571" height="2.78571" fill="#050009"/>
<rect x="30.6428" y="27.8571" width="2.78571" height="2.78571" fill="#ECEDCD"/>
<rect x="27.8572" y="8.35712" width="2.78571" height="2.78571" fill="#F56571"/>
<rect x="27.8572" y="11.1429" width="2.78571" height="2.78571" fill="#F56571"/>
<rect x="27.8572" y="13.9286" width="2.78571" height="2.78571" fill="#F56571"/>
<rect x="27.8572" y="16.7143" width="2.78571" height="2.78571" fill="#F56571"/>
<rect x="27.8572" y="19.5" width="2.78571" height="2.78571" fill="#F56571"/>
<rect x="27.8572" y="22.2857" width="2.78571" height="2.78571" fill="#F56571"/>
<rect x="27.8572" y="25.0714" width="2.78571" height="2.78571" fill="#F56571"/>
<rect x="27.8572" y="27.8571" width="2.78571" height="2.78571" fill="#F56571"/>
<rect x="27.8572" y="30.6429" width="2.78571" height="2.78571" fill="#ECEDCD"/>
<rect x="27.8572" y="33.4286" width="2.78571" height="2.78571" fill="#803239"/>
<rect x="27.8572" y="36.2143" width="2.78571" height="2.78571" fill="#050009"/>
<rect x="27.8572" width="2.78571" height="2.78571" fill="#050009"/>
<rect x="13" y="9" width="4" height="14" fill="#FFFFFD"/>
<rect x="15" y="9" width="2" height="2" fill="#E1E4F5"/>
<rect x="15" y="11" width="2" height="2" fill="#E1E4F5"/>
<rect x="15" y="13" width="2" height="2" fill="#E1E4F5"/>
<rect x="15" y="15" width="2" height="2" fill="#E1E4F5"/>
<rect x="15" y="17" width="2" height="2" fill="#E1E4F5"/>
<rect x="15" y="19" width="2" height="2" fill="#E1E4F5"/>
<rect x="15" y="21" width="2" height="2" fill="#E1E4F5"/>
<rect x="22" y="9" width="4" height="14" fill="#FFFFFD"/>
<rect x="17" y="9" width="2" height="14" fill="#030000"/>
<rect x="11" y="7" width="8" height="2" fill="#030000"/>
<rect x="20" y="7" width="8" height="2" fill="#030000"/>
<rect x="11" y="23" width="8" height="2" fill="#030000"/>
<rect x="20" y="23" width="8" height="2" fill="#030000"/>
<rect x="11" y="9" width="2" height="14" fill="#030000"/>
<rect x="26" y="9" width="2" height="14" fill="#030000"/>
<rect x="20" y="9" width="2" height="14" fill="#030000"/>
<rect x="24" y="9" width="2" height="2" fill="#E1E4F5"/>
<rect x="24" y="11" width="2" height="2" fill="#E1E4F5"/>
<rect x="24" y="13" width="2" height="2" fill="#E1E4F5"/>
<rect x="24" y="15" width="2" height="2" fill="#E1E4F5"/>
<rect x="24" y="17" width="2" height="2" fill="#E1E4F5"/>
<rect x="24" y="19" width="2" height="2" fill="#E1E4F5"/>
<rect x="24" y="21" width="2" height="2" fill="#E1E4F5"/>
</svg>
