<svg width="25" height="24" viewBox="0 0 25 24" fill="none" xmlns="http://www.w3.org/2000/svg">
<g id="Group 35">
<g id="Group 39">
<rect id="Rectangle 682" width="2.75" height="2.75" transform="matrix(-1 0 0 1 17.2495 9.25)" fill="white"/>
<rect id="Rectangle 683" width="2.75" height="2.75" transform="matrix(-1 0 0 1 14.5 12)" fill="white"/>
<rect id="Rectangle 684" width="2.75" height="2.75" transform="matrix(-1 0 0 1 14.5 9.25)" fill="white"/>
<rect id="Rectangle 685" width="2.75" height="2.75" transform="matrix(-1 0 0 1 14.5 6.5)" fill="white"/>
<rect id="Rectangle 686" width="2.75" height="2.75" transform="matrix(-1 0 0 1 11.75 3.75)" fill="white"/>
<rect id="Rectangle 687" width="2.75" height="2.75" transform="matrix(-1 0 0 1 11.75 6.5)" fill="white"/>
<rect id="Rectangle 688" width="2.75" height="2.75" transform="matrix(-1 0 0 1 11.75 9.25)" fill="white"/>
<rect id="Rectangle 689" width="2.75" height="2.75" transform="matrix(-1 0 0 1 11.75 12)" fill="white"/>
<rect id="Rectangle 728" width="2.75" height="2.75" transform="matrix(-1 0 0 1 11.75 20.25)" fill="#04081E"/>
<rect id="Rectangle 747" width="2.75" height="2.75" transform="matrix(-1 0 0 1 9.00049 3.75)" fill="#04081E"/>
<rect id="Rectangle 808" width="2.75" height="2.75" transform="matrix(-1 0 0 1 9.00049 6.5)" fill="#04081E"/>
<rect id="Rectangle 809" width="2.75" height="2.75" transform="matrix(-1 0 0 1 9.00049 9.25)" fill="#04081E"/>
<rect id="Rectangle 810" width="2.75" height="2.75" transform="matrix(-1 0 0 1 9.00049 12)" fill="#04081E"/>
<rect id="Rectangle 811" width="2.75" height="2.75" transform="matrix(-1 0 0 1 9.00049 14.75)" fill="#04081E"/>
<rect id="Rectangle 812" width="2.75" height="2.75" transform="matrix(-1 0 0 1 9.00049 17.5)" fill="#04081E"/>
<rect id="Rectangle 734" width="2.75" height="2.75" transform="matrix(-1 0 0 1 14.5 17.5)" fill="#04081E"/>
<rect id="Rectangle 743" width="2.75" height="2.75" transform="matrix(-1 0 0 1 11.75 1)" fill="#04081E"/>
<rect id="Rectangle 741" width="2.75" height="2.75" transform="matrix(-1 0 0 1 14.5 3.75)" fill="#04081E"/>
<rect id="Rectangle 733" width="2.75" height="2.75" transform="matrix(-1 0 0 1 11.75 17.5)" fill="#E1E4F5"/>
<rect id="Rectangle 735" width="2.75" height="2.75" transform="matrix(-1 0 0 1 14.5 14.75)" fill="#E1E4F5"/>
<rect id="Rectangle 736" width="2.75" height="2.75" transform="matrix(-1 0 0 1 17.2495 12)" fill="#E1E4F5"/>
<rect id="Rectangle 737" width="2.75" height="2.75" transform="matrix(-1 0 0 1 17.2495 14.75)" fill="#04081E"/>
<rect id="Rectangle 740" width="2.75" height="2.75" transform="matrix(-1 0 0 1 17.2495 6.5)" fill="#04081E"/>
<rect id="Rectangle 738" width="2.75" height="2.75" transform="matrix(-1 0 0 1 20 12)" fill="#04081E"/>
<rect id="Rectangle 739" width="2.75" height="2.75" transform="matrix(-1 0 0 1 20 9.25)" fill="#04081E"/>
<rect id="Rectangle 690" width="2.75" height="2.75" transform="matrix(-1 0 0 1 11.75 14.75)" fill="white"/>
</g>
</g>
</svg>
