<svg width="28" height="28" viewBox="0 0 28 28" fill="none" xmlns="http://www.w3.org/2000/svg">
<rect x="6.00037" y="2.00024" width="2.00002" height="2.00002" fill="#F2AA18"/>
<rect x="6.00037" y="3.99994" width="2.00002" height="2.00002" fill="#F2AA18"/>
<rect x="6.00037" y="5.99994" width="2.00002" height="2.00002" fill="#F2AA18"/>
<rect x="6.00037" y="8.00018" width="2.00002" height="2.00002" fill="#F2AA18"/>
<rect x="6.00037" y="10.0002" width="2.00002" height="2.00002" fill="#F2AA18"/>
<rect x="6.00037" y="11.9999" width="2.00002" height="2.00002" fill="#F2AA18"/>
<rect x="6.00037" y="14.0001" width="2.00002" height="2.00002" fill="#F2AA18"/>
<rect x="6.00037" y="16.0004" width="2.00002" height="2.00002" fill="#F2AA18"/>
<rect x="6.00037" y="18.0001" width="2.00002" height="2.00002" fill="#F2AA18"/>
<rect x="6.00037" y="20.0001" width="2.00002" height="2.00002" fill="#F2AA18"/>
<rect x="6.00037" y="22.0004" width="2.00002" height="2.00002" fill="#B7620F"/>
<rect x="6.00037" y="24.0004" width="2.00002" height="2.00002" fill="#B7620F"/>
<rect x="6.00037" y="26.0001" width="2.00002" height="2.00002" fill="#050009"/>
<rect x="6.00037" width="2.00002" height="2.00002" fill="#050009"/>
<rect x="7.99988" y="2.00024" width="2.00002" height="2.00002" fill="#F2AA18"/>
<rect x="7.99988" y="3.99994" width="2.00002" height="2.00002" fill="#F2AA18"/>
<rect x="7.99988" y="5.99994" width="2.00002" height="2.00002" fill="#F2AA18"/>
<rect x="7.99988" y="8.00018" width="2.00002" height="2.00002" fill="#F2AA18"/>
<rect x="7.99988" y="10.0002" width="2.00002" height="2.00002" fill="#F2AA18"/>
<rect x="7.99988" y="11.9999" width="2.00002" height="2.00002" fill="#F2AA18"/>
<rect x="7.99988" y="14.0001" width="2.00002" height="2.00002" fill="#F2AA18"/>
<rect x="7.99988" y="16.0004" width="2.00002" height="2.00002" fill="#F2AA18"/>
<rect x="7.99988" y="18.0001" width="2.00002" height="2.00002" fill="#F2AA18"/>
<rect x="7.99988" y="20.0001" width="2.00002" height="2.00002" fill="#F2AA18"/>
<rect x="7.99988" y="22.0004" width="2.00002" height="2.00002" fill="#B7620F"/>
<rect x="7.99988" y="24.0004" width="2.00002" height="2.00002" fill="#B7620F"/>
<rect x="7.99988" y="26.0001" width="2.00002" height="2.00002" fill="#050009"/>
<rect x="7.99988" width="2.00002" height="2.00002" fill="#050009"/>
<rect x="9.99963" y="2.00024" width="2.00002" height="2.00002" fill="#F2AA18"/>
<rect x="9.99963" y="3.99994" width="2.00002" height="2.00002" fill="#F2AA18"/>
<rect x="9.99963" y="5.99994" width="2.00002" height="2.00002" fill="#F2AA18"/>
<rect x="9.99963" y="8.00018" width="2.00002" height="2.00002" fill="#F2AA18"/>
<rect x="9.99963" y="10.0002" width="2.00002" height="2.00002" fill="#F2AA18"/>
<rect x="9.99963" y="11.9999" width="2.00002" height="2.00002" fill="#F2AA18"/>
<rect x="9.99963" y="14.0001" width="2.00002" height="2.00002" fill="#F2AA18"/>
<rect x="9.99963" y="16.0004" width="2.00002" height="2.00002" fill="#F2AA18"/>
<rect x="9.99963" y="18.0001" width="2.00002" height="2.00002" fill="#F2AA18"/>
<rect x="9.99963" y="20.0001" width="2.00002" height="2.00002" fill="#F2AA18"/>
<rect x="9.99963" y="22.0004" width="2.00002" height="2.00002" fill="#B7620F"/>
<rect x="9.99963" y="24.0004" width="2.00002" height="2.00002" fill="#B7620F"/>
<rect x="9.99963" y="26.0001" width="2.00002" height="2.00002" fill="#050009"/>
<rect x="9.99963" width="2.00002" height="2.00002" fill="#050009"/>
<rect x="11.9999" y="2.00024" width="2.00002" height="2.00002" fill="#F2AA18"/>
<rect x="11.9999" y="3.99994" width="2.00002" height="2.00002" fill="#F2AA18"/>
<rect x="11.9999" y="5.99994" width="2.00002" height="2.00002" fill="#F2AA18"/>
<rect x="11.9999" y="8.00018" width="2.00002" height="2.00002" fill="#F2AA18"/>
<rect x="11.9999" y="10.0002" width="2.00002" height="2.00002" fill="#F2AA18"/>
<rect x="11.9999" y="11.9999" width="2.00002" height="2.00002" fill="#F2AA18"/>
<rect x="11.9999" y="14.0001" width="2.00002" height="2.00002" fill="#F2AA18"/>
<rect x="11.9999" y="16.0004" width="2.00002" height="2.00002" fill="#F2AA18"/>
<rect x="11.9999" y="18.0001" width="2.00002" height="2.00002" fill="#F2AA18"/>
<rect x="11.9999" y="20.0001" width="2.00002" height="2.00002" fill="#F2AA18"/>
<rect x="11.9999" y="22.0004" width="2.00002" height="2.00002" fill="#B7620F"/>
<rect x="11.9999" y="24.0004" width="2.00002" height="2.00002" fill="#B7620F"/>
<rect x="11.9999" y="26.0001" width="2.00002" height="2.00002" fill="#050009"/>
<rect x="11.9999" width="2.00002" height="2.00002" fill="#050009"/>
<rect x="14.0001" y="2.00024" width="2.00002" height="2.00002" fill="#F2AA18"/>
<rect x="14.0001" y="3.99994" width="2.00002" height="2.00002" fill="#F2AA18"/>
<rect x="14.0001" y="5.99994" width="2.00002" height="2.00002" fill="#F2AA18"/>
<rect x="14.0001" y="8.00018" width="2.00002" height="2.00002" fill="#F2AA18"/>
<rect x="14.0001" y="10.0002" width="2.00002" height="2.00002" fill="#F2AA18"/>
<rect x="14.0001" y="11.9999" width="2.00002" height="2.00002" fill="#F2AA18"/>
<rect x="14.0001" y="14.0001" width="2.00002" height="2.00002" fill="#F2AA18"/>
<rect x="14.0001" y="16.0004" width="2.00002" height="2.00002" fill="#F2AA18"/>
<rect x="14.0001" y="18.0001" width="2.00002" height="2.00002" fill="#F2AA18"/>
<rect x="14.0001" y="20.0001" width="2.00002" height="2.00002" fill="#F2AA18"/>
<rect x="14.0001" y="22.0004" width="2.00002" height="2.00002" fill="#B7620F"/>
<rect x="14.0001" y="24.0004" width="2.00002" height="2.00002" fill="#B7620F"/>
<rect x="14.0001" y="26.0001" width="2.00002" height="2.00002" fill="#050009"/>
<rect x="14.0001" width="2.00002" height="2.00002" fill="#050009"/>
<rect x="16.0004" y="2.00024" width="2.00002" height="2.00002" fill="#F2AA18"/>
<rect x="16.0004" y="3.99994" width="2.00002" height="2.00002" fill="#F2AA18"/>
<rect x="16.0004" y="5.99994" width="2.00002" height="2.00002" fill="#F2AA18"/>
<rect x="16.0004" y="8.00018" width="2.00002" height="2.00002" fill="#F2AA18"/>
<rect x="16.0004" y="10.0002" width="2.00002" height="2.00002" fill="#F2AA18"/>
<rect x="16.0004" y="11.9999" width="2.00002" height="2.00002" fill="#F2AA18"/>
<rect x="16.0004" y="14.0001" width="2.00002" height="2.00002" fill="#F2AA18"/>
<rect x="16.0004" y="16.0004" width="2.00002" height="2.00002" fill="#F2AA18"/>
<rect x="16.0004" y="18.0001" width="2.00002" height="2.00002" fill="#F2AA18"/>
<rect x="16.0004" y="20.0001" width="2.00002" height="2.00002" fill="#F2AA18"/>
<rect x="16.0004" y="22.0004" width="2.00002" height="2.00002" fill="#B7620F"/>
<rect x="16.0004" y="24.0004" width="2.00002" height="2.00002" fill="#B7620F"/>
<rect x="16.0004" y="26.0001" width="2.00002" height="2.00002" fill="#050009"/>
<rect x="16.0004" width="2.00002" height="2.00002" fill="#050009"/>
<rect x="18.0006" y="2.00024" width="2.00002" height="2.00002" fill="#F2AA18"/>
<rect x="18.0006" y="3.99994" width="2.00002" height="2.00002" fill="#F2AA18"/>
<rect x="18.0006" y="5.99994" width="2.00002" height="2.00002" fill="#F2AA18"/>
<rect x="18.0006" y="8.00018" width="2.00002" height="2.00002" fill="#F2AA18"/>
<rect x="18.0006" y="10.0002" width="2.00002" height="2.00002" fill="#F2AA18"/>
<rect x="18.0006" y="11.9999" width="2.00002" height="2.00002" fill="#F2AA18"/>
<rect x="18.0006" y="14.0001" width="2.00002" height="2.00002" fill="#F2AA18"/>
<rect x="18.0006" y="16.0004" width="2.00002" height="2.00002" fill="#F2AA18"/>
<rect x="18.0006" y="18.0001" width="2.00002" height="2.00002" fill="#F2AA18"/>
<rect x="18.0006" y="20.0001" width="2.00002" height="2.00002" fill="#F2AA18"/>
<rect x="18.0006" y="22.0004" width="2.00002" height="2.00002" fill="#B7620F"/>
<rect x="18.0006" y="24.0004" width="2.00002" height="2.00002" fill="#B7620F"/>
<rect x="18.0006" y="26.0001" width="2.00002" height="2.00002" fill="#050009"/>
<rect x="18.0006" width="2.00002" height="2.00002" fill="#050009"/>
<rect x="20.0005" y="2.00024" width="2.00002" height="2.00002" fill="#F2AA18"/>
<rect x="20.0005" y="3.99994" width="2.00002" height="2.00002" fill="#F2AA18"/>
<rect x="22" y="3.99994" width="2.00002" height="2.00002" fill="#F2AA18"/>
<rect x="4.00049" y="3.99994" width="2.00002" height="2.00002" fill="#F2AA18"/>
<rect x="22" y="8.00018" width="2.00002" height="2.00002" fill="#F2AA18"/>
<rect x="4.00049" y="8.00018" width="2.00002" height="2.00002" fill="#F2AA18"/>
<rect x="22" y="11.9999" width="2.00002" height="2.00002" fill="#F2AA18"/>
<rect x="4.00049" y="11.9999" width="2.00002" height="2.00002" fill="#F2AA18"/>
<rect x="22" y="16.0004" width="2.00002" height="2.00002" fill="#F2AA18"/>
<rect x="4.00049" y="16.0004" width="2.00002" height="2.00002" fill="#F2AA18"/>
<rect x="22" y="5.99994" width="2.00002" height="2.00002" fill="#F2AA18"/>
<rect x="4.00049" y="5.99994" width="2.00002" height="2.00002" fill="#F2AA18"/>
<rect x="23.9998" y="5.99994" width="2.00002" height="2.00002" fill="#F2AA18"/>
<rect x="2.00024" y="5.99994" width="2.00002" height="2.00002" fill="#F2AA18"/>
<rect y="5.99994" width="2.00002" height="2.00002" fill="#050009"/>
<rect x="26" y="5.99994" width="2.00002" height="2.00002" fill="#050009"/>
<rect x="23.9998" y="10.0002" width="2.00002" height="2.00002" fill="#F2AA18"/>
<rect x="2.00024" y="10.0002" width="2.00002" height="2.00002" fill="#F2AA18"/>
<rect y="10.0002" width="2.00002" height="2.00002" fill="#050009"/>
<rect x="26" y="10.0002" width="2.00002" height="2.00002" fill="#050009"/>
<rect x="23.9998" y="14.0001" width="2.00002" height="2.00002" fill="#F2AA18"/>
<rect x="2.00024" y="14.0001" width="2.00002" height="2.00002" fill="#F2AA18"/>
<rect y="14.0001" width="2.00002" height="2.00002" fill="#050009"/>
<rect x="26" y="14.0001" width="2.00002" height="2.00002" fill="#050009"/>
<rect y="18.0001" width="2.00002" height="2.00002" fill="#050009"/>
<rect x="26" y="18.0001" width="2.00002" height="2.00002" fill="#050009"/>
<rect x="23.9998" y="8.00018" width="2.00002" height="2.00002" fill="#F2AA18"/>
<rect x="2.00024" y="8.00018" width="2.00002" height="2.00002" fill="#F2AA18"/>
<rect y="8.00018" width="2.00002" height="2.00002" fill="#050009"/>
<rect x="26" y="8.00018" width="2.00002" height="2.00002" fill="#050009"/>
<rect x="23.9998" y="11.9999" width="2.00002" height="2.00002" fill="#F2AA18"/>
<rect x="2.00024" y="11.9999" width="2.00002" height="2.00002" fill="#F2AA18"/>
<rect y="11.9999" width="2.00002" height="2.00002" fill="#050009"/>
<rect x="26" y="11.9999" width="2.00002" height="2.00002" fill="#050009"/>
<rect x="23.9998" y="16.0004" width="2.00002" height="2.00002" fill="#F2AA18"/>
<rect x="2.00024" y="16.0004" width="2.00002" height="2.00002" fill="#F2AA18"/>
<rect y="16.0004" width="2.00002" height="2.00002" fill="#050009"/>
<rect x="26" y="16.0004" width="2.00002" height="2.00002" fill="#050009"/>
<rect y="20.0001" width="2.00002" height="2.00002" fill="#050009"/>
<rect x="26" y="20.0001" width="2.00002" height="2.00002" fill="#050009"/>
<rect x="2.00024" y="18.0001" width="2.00002" height="2.00002" fill="#B7620F"/>
<rect x="23.9998" y="18.0001" width="2.00002" height="2.00002" fill="#B7620F"/>
<rect x="22" y="10.0002" width="2.00002" height="2.00002" fill="#F2AA18"/>
<rect x="4.00049" y="10.0002" width="2.00002" height="2.00002" fill="#F2AA18"/>
<rect x="22" y="14.0001" width="2.00002" height="2.00002" fill="#F2AA18"/>
<rect x="4.00049" y="14.0001" width="2.00002" height="2.00002" fill="#F2AA18"/>
<rect x="22" y="18.0001" width="2.00002" height="2.00002" fill="#F2AA18"/>
<rect x="4.00049" y="18.0001" width="2.00002" height="2.00002" fill="#F2AA18"/>
<rect x="4.00049" y="20.0001" width="2.00002" height="2.00002" fill="#B7620F"/>
<rect x="4.00049" y="22.0004" width="2.00002" height="2.00002" fill="#B7620F"/>
<rect x="22" y="22.0004" width="2.00002" height="2.00002" fill="#B7620F"/>
<rect x="2.00024" y="20.0001" width="2.00002" height="2.00002" fill="#B7620F"/>
<rect x="23.9998" y="20.0001" width="2.00002" height="2.00002" fill="#B7620F"/>
<rect x="4.00049" y="24.0004" width="2.00002" height="2.00002" fill="#050009"/>
<rect x="4.00049" y="2.00024" width="2.00002" height="2.00002" fill="#050009"/>
<rect x="22" y="2.00024" width="2.00002" height="2.00002" fill="#050009"/>
<rect x="22" y="24.0004" width="2.00002" height="2.00002" fill="#050009"/>
<rect x="2.00024" y="22.0004" width="2.00002" height="2.00002" fill="#050009"/>
<rect x="2.00024" y="3.99994" width="2.00002" height="2.00002" fill="#050009"/>
<rect x="23.9998" y="3.99994" width="2.00002" height="2.00002" fill="#050009"/>
<rect x="23.9998" y="22.0004" width="2.00002" height="2.00002" fill="#050009"/>
<rect x="22" y="20.0001" width="2.00002" height="2.00002" fill="#B7620F"/>
<rect x="20.0005" y="5.99994" width="2.00002" height="2.00002" fill="#F2AA18"/>
<rect x="20.0005" y="8.00018" width="2.00002" height="2.00002" fill="#F2AA18"/>
<rect x="20.0005" y="10.0002" width="2.00002" height="2.00002" fill="#F2AA18"/>
<rect x="20.0005" y="11.9999" width="2.00002" height="2.00002" fill="#F2AA18"/>
<rect x="20.0005" y="14.0001" width="2.00002" height="2.00002" fill="#F2AA18"/>
<rect x="20.0005" y="16.0004" width="2.00002" height="2.00002" fill="#F2AA18"/>
<rect x="20.0005" y="18.0001" width="2.00002" height="2.00002" fill="#F2AA18"/>
<rect x="20.0005" y="20.0001" width="2.00002" height="2.00002" fill="#F2AA18"/>
<rect x="20.0005" y="22.0004" width="2.00002" height="2.00002" fill="#B7620F"/>
<rect x="20.0005" y="24.0004" width="2.00002" height="2.00002" fill="#B7620F"/>
<rect x="20.0005" y="26.0001" width="2.00002" height="2.00002" fill="#050009"/>
<rect x="20.0005" width="2.00002" height="2.00002" fill="#050009"/>
<rect x="9.04578" y="10.0515" width="1.14873" height="1.14873" fill="white"/>
<rect x="9.04578" y="8.90289" width="1.14873" height="1.14873" fill="white"/>
<rect x="9.04578" y="7.75397" width="1.14873" height="1.14873" fill="white"/>
<rect x="10.1945" y="10.0515" width="1.14873" height="1.14873" fill="white"/>
<rect x="10.1945" y="8.90289" width="1.14873" height="1.14873" fill="white"/>
<rect x="10.1945" y="7.75397" width="1.14873" height="1.14873" fill="white"/>
<rect x="13.6411" y="7.75397" width="1.14873" height="1.14873" fill="white"/>
<rect x="12.4923" y="7.75397" width="1.14873" height="1.14873" fill="white"/>
<rect x="11.3435" y="6.60516" width="1.14873" height="1.14873" fill="white"/>
<rect x="10.1945" y="6.60516" width="1.14873" height="1.14873" fill="white"/>
<rect x="13.6411" y="6.60516" width="1.14873" height="1.14873" fill="white"/>
<rect x="11.3435" y="5.45624" width="1.14873" height="1.14873" fill="white"/>
<rect x="11.3435" y="4.30756" width="1.14873" height="1.14873" fill="#050009"/>
<rect x="10.1945" y="5.45624" width="1.14873" height="1.14873" fill="#050009"/>
<rect x="9.04578" y="6.60516" width="1.14873" height="1.14873" fill="#050009"/>
<rect x="7.89734" y="7.75397" width="1.14873" height="1.14873" fill="#050009"/>
<rect x="7.89734" y="8.90289" width="1.14873" height="1.14873" fill="#050009"/>
<rect x="7.89734" y="10.0515" width="1.14873" height="1.14873" fill="#050009"/>
<rect x="9.04578" y="11.2" width="1.14873" height="1.14873" fill="#050009"/>
<rect x="10.1945" y="11.2" width="1.14873" height="1.14873" fill="#050009"/>
<rect x="11.3442" y="11.2" width="1.14873" height="1.14873" fill="#050009"/>
<rect x="11.3442" y="12.205" width="1.14873" height="1.14873" fill="#050009"/>
<rect x="11.3442" y="12.9231" width="1.14873" height="1.14873" fill="#050009"/>
<rect x="11.3442" y="13.6411" width="1.14873" height="1.14873" fill="#050009"/>
<rect x="12.4923" y="11.2" width="1.14873" height="1.14873" fill="#050009"/>
<rect x="13.6411" y="11.2" width="1.14873" height="1.14873" fill="#050009"/>
<rect x="13.6411" y="10.0515" width="1.14873" height="1.14873" fill="#050009"/>
<rect x="13.6411" y="8.90289" width="1.14873" height="1.14873" fill="#050009"/>
<rect x="12.4923" y="8.90289" width="1.14873" height="1.14873" fill="#050009"/>
<rect x="12.4923" y="10.0515" width="1.14873" height="1.14873" fill="#050009"/>
<rect x="13.6411" y="5.45624" width="1.14873" height="1.14873" fill="white"/>
<rect x="13.6411" y="4.30756" width="1.14873" height="1.14873" fill="#050009"/>
<rect x="11.3435" y="10.0515" width="1.14873" height="1.14873" fill="white"/>
<rect x="11.3435" y="8.90289" width="1.14873" height="1.14873" fill="white"/>
<rect x="11.3435" y="7.75397" width="1.14873" height="1.14873" fill="white"/>
<rect x="14.7899" y="7.75397" width="1.14873" height="1.14873" fill="white"/>
<rect x="14.7899" y="10.0515" width="1.14873" height="1.14873" fill="white"/>
<rect x="14.7899" y="12.3487" width="1.14873" height="1.14873" fill="white"/>
<rect x="14.7899" y="13.4975" width="1.14873" height="1.14873" fill="#E1E4F5"/>
<rect x="14.7899" y="15.7952" width="1.14873" height="1.14873" fill="#E1E4F5"/>
<rect x="14.7899" y="16.9439" width="1.14873" height="1.14873" fill="#E1E4F5"/>
<rect x="14.7899" y="18.0923" width="1.14873" height="1.14873" fill="#E1E4F5"/>
<rect x="12.4923" y="12.3487" width="1.14873" height="1.14873" fill="white"/>
<rect x="12.4923" y="13.4975" width="1.14873" height="1.14873" fill="white"/>
<rect x="12.4923" y="15.7952" width="1.14873" height="1.14873" fill="white"/>
<rect x="12.4923" y="16.9439" width="1.14873" height="1.14873" fill="white"/>
<rect x="12.4923" y="18.0923" width="1.14873" height="1.14873" fill="white"/>
<rect x="15.9387" y="7.75397" width="1.14873" height="1.14873" fill="white"/>
<rect x="15.9387" y="10.0515" width="1.14873" height="1.14873" fill="white"/>
<rect x="15.9387" y="12.3487" width="1.14873" height="1.14873" fill="#E1E4F5"/>
<rect x="13.6411" y="12.3487" width="1.14873" height="1.14873" fill="white"/>
<rect x="13.6411" y="13.4975" width="1.14873" height="1.14873" fill="white"/>
<rect x="13.6411" y="15.7952" width="1.14873" height="1.14873" fill="white"/>
<rect x="13.6411" y="16.9439" width="1.14873" height="1.14873" fill="white"/>
<rect x="13.6411" y="18.0923" width="1.14873" height="1.14873" fill="white"/>
<rect x="17.0878" y="7.75397" width="1.14873" height="1.14873" fill="#E1E4F5"/>
<rect x="18.2367" y="7.75397" width="1.14873" height="1.14873" fill="#050009"/>
<rect x="17.0878" y="10.0515" width="1.14873" height="1.14873" fill="#E1E4F5"/>
<rect x="18.2367" y="10.0515" width="1.14873" height="1.14873" fill="#050009"/>
<rect x="17.0878" y="12.3487" width="1.14873" height="1.14873" fill="#E1E4F5"/>
<rect x="18.2367" y="12.3487" width="1.14873" height="1.14873" fill="#050009"/>
<rect x="17.0878" y="13.4975" width="1.14873" height="1.14873" fill="#050009"/>
<rect x="15.9387" y="13.4975" width="1.14873" height="1.14873" fill="#050009"/>
<rect x="15.9387" y="15.7952" width="1.14873" height="1.14873" fill="#050009"/>
<rect x="11.3435" y="15.7952" width="1.14873" height="1.14873" fill="#050009"/>
<rect x="15.9387" y="16.9439" width="1.14873" height="1.14873" fill="#050009"/>
<rect x="11.3435" y="16.9439" width="1.14873" height="1.14873" fill="#050009"/>
<rect x="15.9387" y="18.0923" width="1.14873" height="1.14873" fill="#050009"/>
<rect x="11.3435" y="18.0923" width="1.14873" height="1.14873" fill="#050009"/>
<rect x="14.7899" y="14.6464" width="1.14873" height="1.14873" fill="#050009"/>
<rect x="14.7899" y="19.241" width="1.14873" height="1.14873" fill="#050009"/>
<rect x="13.6411" y="14.6464" width="1.14873" height="1.14873" fill="#050009"/>
<rect x="13.6411" y="19.241" width="1.14873" height="1.14873" fill="#050009"/>
<rect x="12.4923" y="14.6464" width="1.14873" height="1.14873" fill="#050009"/>
<rect x="12.4923" y="19.241" width="1.14873" height="1.14873" fill="#050009"/>
<rect x="12.4923" y="6.60516" width="1.14873" height="1.14873" fill="white"/>
<rect x="14.7899" y="6.60516" width="1.14873" height="1.14873" fill="white"/>
<rect x="14.7899" y="8.90289" width="1.14873" height="1.14873" fill="white"/>
<rect x="14.7899" y="11.2" width="1.14873" height="1.14873" fill="white"/>
<rect x="15.9387" y="6.60516" width="1.14873" height="1.14873" fill="white"/>
<rect x="15.9387" y="8.90289" width="1.14873" height="1.14873" fill="white"/>
<rect x="15.9387" y="11.2" width="1.14873" height="1.14873" fill="white"/>
<rect x="17.0878" y="6.60516" width="1.14873" height="1.14873" fill="#E1E4F5"/>
<rect x="18.2367" y="6.60516" width="1.14873" height="1.14873" fill="#050009"/>
<rect x="17.0878" y="5.45624" width="1.14873" height="1.14873" fill="#050009"/>
<rect x="15.9387" y="5.45624" width="1.14873" height="1.14873" fill="#050009"/>
<rect x="14.7899" y="5.45624" width="1.14873" height="1.14873" fill="#E1E4F5"/>
<rect x="14.7899" y="4.30756" width="1.14873" height="1.14873" fill="#050009"/>
<rect x="17.0878" y="8.90289" width="1.14873" height="1.14873" fill="#E1E4F5"/>
<rect x="18.2367" y="8.90289" width="1.14873" height="1.14873" fill="#050009"/>
<rect x="17.0878" y="11.2" width="1.14873" height="1.14873" fill="#E1E4F5"/>
<rect x="18.2367" y="11.2" width="1.14873" height="1.14873" fill="#050009"/>
<rect x="12.4923" y="5.45624" width="1.14873" height="1.14873" fill="white"/>
<rect x="12.4923" y="4.30756" width="1.14873" height="1.14873" fill="#050009"/>
</svg>
