<svg width="25" height="24" viewBox="0 0 25 24" fill="none" xmlns="http://www.w3.org/2000/svg">
<rect width="1.55232" height="1.55232" transform="matrix(-1 0 0 1 19.7539 7.6091)" fill="white"/>
<rect width="1.55232" height="1.55232" transform="matrix(-1 0 0 1 18.2026 9.16144)" fill="white"/>
<rect width="1.55232" height="1.55232" transform="matrix(-1 0 0 1 18.2026 7.6091)" fill="white"/>
<rect width="1.55232" height="1.55232" transform="matrix(-1 0 0 1 18.2026 6.05679)" fill="white"/>
<rect width="1.55232" height="1.55232" transform="matrix(-1 0 0 1 16.6499 4.50446)" fill="white"/>
<rect width="1.55232" height="1.55232" transform="matrix(-1 0 0 1 16.6499 6.05679)" fill="white"/>
<rect width="1.55232" height="1.55232" transform="matrix(-1 0 0 1 15.0962 6.05679)" fill="white"/>
<rect width="1.55232" height="1.55232" transform="matrix(-1 0 0 1 13.5444 6.05679)" fill="white"/>
<rect width="1.55232" height="1.55232" transform="matrix(-1 0 0 1 11.9922 6.05679)" fill="white"/>
<rect width="1.55232" height="1.55232" transform="matrix(-1 0 0 1 10.4404 6.05679)" fill="white"/>
<rect width="1.55232" height="1.55232" transform="matrix(-1 0 0 1 8.88867 6.05679)" fill="white"/>
<rect width="1.55232" height="1.55232" transform="matrix(-1 0 0 1 7.33594 6.05679)" fill="white"/>
<rect width="1.55232" height="1.55232" transform="matrix(-1 0 0 1 16.6499 7.6091)" fill="white"/>
<rect width="1.55232" height="1.55232" transform="matrix(-1 0 0 1 15.0962 7.6091)" fill="white"/>
<rect width="1.55232" height="1.55232" transform="matrix(-1 0 0 1 13.5444 7.6091)" fill="white"/>
<rect width="1.55232" height="1.55232" transform="matrix(-1 0 0 1 11.9922 7.6091)" fill="white"/>
<rect width="1.55232" height="1.55232" transform="matrix(-1 0 0 1 10.4404 7.6091)" fill="white"/>
<rect width="1.55232" height="1.55232" transform="matrix(-1 0 0 1 8.88867 7.6091)" fill="white"/>
<rect width="1.55232" height="1.55232" transform="matrix(-1 0 0 1 7.33594 7.6091)" fill="white"/>
<rect width="1.55232" height="1.55232" transform="matrix(-1 0 0 1 5.78369 7.6091)" fill="white"/>
<rect width="1.55232" height="1.55232" transform="matrix(-1 0 0 1 16.6499 9.16144)" fill="white"/>
<rect width="1.55232" height="1.55232" transform="matrix(-1 0 0 1 15.0962 9.16144)" fill="white"/>
<rect width="1.55232" height="1.55232" transform="matrix(-1 0 0 1 13.5444 9.16144)" fill="white"/>
<rect width="1.55232" height="1.55232" transform="matrix(-1 0 0 1 11.9922 9.16144)" fill="white"/>
<rect width="1.55232" height="1.55232" transform="matrix(-1 0 0 1 10.4404 9.16144)" fill="white"/>
<rect width="1.55232" height="1.55232" transform="matrix(-1 0 0 1 8.88867 9.16144)" fill="white"/>
<rect width="1.55232" height="1.55232" transform="matrix(-1 0 0 1 8.88867 10.7137)" fill="white"/>
<rect width="1.55232" height="1.55232" transform="matrix(-1 0 0 1 8.88867 12.2661)" fill="white"/>
<rect width="1.55232" height="1.55232" transform="matrix(-1 0 0 1 8.88867 13.8184)" fill="white"/>
<rect width="1.55232" height="1.55232" transform="matrix(-1 0 0 1 8.88867 15.3707)" fill="white"/>
<rect width="1.55232" height="1.55232" transform="matrix(-1 0 0 1 8.88867 16.923)" fill="white"/>
<rect width="1.55232" height="1.55232" transform="matrix(-1 0 0 1 13.5444 13.8184)" fill="white"/>
<rect width="1.55232" height="1.55232" transform="matrix(-1 0 0 1 13.5444 15.3707)" fill="white"/>
<rect width="1.55232" height="1.55232" transform="matrix(-1 0 0 1 13.5444 16.923)" fill="white"/>
<rect width="1.55232" height="1.55232" transform="matrix(-1 0 0 1 18.2026 13.8184)" fill="white"/>
<rect width="1.55232" height="1.55232" transform="matrix(-1 0 0 1 18.2026 16.923)" fill="white"/>
<rect width="1.55232" height="1.55232" transform="matrix(-1 0 0 1 18.2026 15.3707)" fill="white"/>
<rect width="1.55232" height="1.55232" transform="matrix(-1 0 0 1 10.4404 12.2661)" fill="#753136"/>
<rect width="1.55232" height="1.55232" transform="matrix(-1 0 0 1 10.4404 4.50446)" fill="#753136"/>
<rect width="1.55232" height="1.55232" transform="matrix(-1 0 0 1 10.4404 20.0277)" fill="#753136"/>
<rect width="1.55232" height="1.55232" transform="matrix(-1 0 0 1 8.88867 20.0277)" fill="#753136"/>
<rect width="1.55232" height="1.55232" transform="matrix(-1 0 0 1 7.33594 20.0277)" fill="#753136"/>
<rect width="1.55232" height="1.55232" transform="matrix(-1 0 0 1 7.33594 4.50446)" fill="#753136"/>
<rect width="1.55232" height="1.55232" transform="matrix(-1 0 0 1 5.78369 6.05679)" fill="#753136"/>
<rect width="1.55232" height="1.55232" transform="matrix(-1 0 0 1 4.23193 7.6091)" fill="#753136"/>
<rect width="1.55232" height="1.55232" transform="matrix(-1 0 0 1 4.23193 10.7137)" fill="#753136"/>
<rect width="1.55232" height="1.55232" transform="matrix(-1 0 0 1 4.23193 13.8184)" fill="#753136"/>
<rect width="1.55232" height="1.55232" transform="matrix(-1 0 0 1 4.23193 9.16144)" fill="#753136"/>
<rect width="1.55232" height="1.55232" transform="matrix(-1 0 0 1 4.23193 12.2661)" fill="#753136"/>
<rect width="1.55232" height="1.55232" transform="matrix(-1 0 0 1 4.23193 15.3707)" fill="#753136"/>
<rect width="1.55232" height="1.55232" transform="matrix(-1 0 0 1 4.23193 16.923)" fill="#753136"/>
<rect width="1.55232" height="1.55232" transform="matrix(-1 0 0 1 10.4404 10.7137)" fill="#E1E4F5"/>
<rect width="1.55232" height="1.55232" transform="matrix(-1 0 0 1 11.9922 12.2661)" fill="#753136"/>
<rect width="1.55232" height="1.55232" transform="matrix(-1 0 0 1 11.9922 4.50446)" fill="#753136"/>
<rect width="1.55232" height="1.55232" transform="matrix(-1 0 0 1 11.9922 20.0277)" fill="#753136"/>
<rect width="1.55232" height="1.55232" transform="matrix(-1 0 0 1 8.88867 4.50446)" fill="#753136"/>
<rect width="1.55232" height="1.55232" transform="matrix(-1 0 0 1 11.9922 10.7137)" fill="#E1E4F5"/>
<rect width="1.55232" height="1.55232" transform="matrix(-1 0 0 1 13.5444 12.2661)" fill="#753136"/>
<rect width="1.55232" height="1.55232" transform="matrix(-1 0 0 1 13.5444 4.50446)" fill="#753136"/>
<rect width="1.55232" height="1.55232" transform="matrix(-1 0 0 1 13.5444 20.0277)" fill="#753136"/>
<rect width="1.55232" height="1.55232" transform="matrix(-1 0 0 1 13.5444 10.7137)" fill="#E1E4F5"/>
<rect width="1.55232" height="1.55232" transform="matrix(-1 0 0 1 15.0962 12.2661)" fill="#753136"/>
<rect width="1.55232" height="1.55232" transform="matrix(-1 0 0 1 15.0962 4.50446)" fill="#753136"/>
<rect width="1.55232" height="1.55232" transform="matrix(-1 0 0 1 15.0962 20.0277)" fill="#753136"/>
<rect width="1.55232" height="1.55232" transform="matrix(-1 0 0 1 16.6499 20.0277)" fill="#753136"/>
<rect width="1.55232" height="1.55232" transform="matrix(-1 0 0 1 18.2026 20.0277)" fill="#753136"/>
<rect width="1.55232" height="1.55232" transform="matrix(-1 0 0 1 18.2026 12.2661)" fill="#753136"/>
<rect width="1.55232" height="1.55232" transform="matrix(-1 0 0 1 19.7539 13.8184)" fill="#753136"/>
<rect width="1.55232" height="1.55232" transform="matrix(-1 0 0 1 19.7539 16.923)" fill="#753136"/>
<rect width="1.55232" height="1.55232" transform="matrix(-1 0 0 1 19.7539 18.4754)" fill="#753136"/>
<rect width="1.55232" height="1.55232" transform="matrix(-1 0 0 1 19.7539 15.3707)" fill="#753136"/>
<rect width="1.55232" height="1.55232" transform="matrix(-1 0 0 1 16.6499 2.95215)" fill="#753136"/>
<rect width="1.55232" height="1.55232" transform="matrix(-1 0 0 1 18.2026 4.50446)" fill="#753136"/>
<rect width="1.55232" height="1.55232" transform="matrix(-1 0 0 1 15.0962 10.7137)" fill="#E1E4F5"/>
<rect width="1.55232" height="1.55232" transform="matrix(-1 0 0 1 16.6499 12.2661)" fill="#E1E4F5"/>
<rect width="1.55232" height="1.55232" transform="matrix(-1 0 0 1 18.2026 10.7137)" fill="#E1E4F5"/>
<rect width="1.55232" height="1.55232" transform="matrix(-1 0 0 1 19.7539 9.16144)" fill="#E1E4F5"/>
<rect width="1.55232" height="1.55232" transform="matrix(-1 0 0 1 19.7539 10.7137)" fill="#753136"/>
<rect width="1.55232" height="1.55232" transform="matrix(-1 0 0 1 19.7539 6.05679)" fill="#753136"/>
<rect width="1.55232" height="1.55232" transform="matrix(-1 0 0 1 21.3066 9.16144)" fill="#753136"/>
<rect width="1.55232" height="1.55232" transform="matrix(-1 0 0 1 21.3066 7.6091)" fill="#753136"/>
<rect width="1.55232" height="1.55232" transform="matrix(-1 0 0 1 7.33594 9.16144)" fill="white"/>
<rect width="1.55232" height="1.55232" transform="matrix(-1 0 0 1 7.33594 10.7137)" fill="white"/>
<rect width="1.55232" height="1.55232" transform="matrix(-1 0 0 1 7.33594 12.2661)" fill="white"/>
<rect width="1.55232" height="1.55232" transform="matrix(-1 0 0 1 7.33594 13.8184)" fill="white"/>
<rect width="1.55232" height="1.55232" transform="matrix(-1 0 0 1 7.33594 15.3707)" fill="white"/>
<rect width="1.55232" height="1.55232" transform="matrix(-1 0 0 1 7.33594 16.923)" fill="white"/>
<rect width="1.55232" height="1.55232" transform="matrix(-1 0 0 1 11.9922 13.8184)" fill="white"/>
<rect width="1.55232" height="1.55232" transform="matrix(-1 0 0 1 11.9922 15.3707)" fill="white"/>
<rect width="1.55232" height="1.55232" transform="matrix(-1 0 0 1 11.9922 16.923)" fill="white"/>
<rect width="1.55232" height="1.55232" transform="matrix(-1 0 0 1 16.6499 13.8184)" fill="white"/>
<rect width="1.55232" height="1.55232" transform="matrix(-1 0 0 1 16.6499 16.923)" fill="white"/>
<rect width="1.55232" height="1.55232" transform="matrix(-1 0 0 1 16.6499 15.3707)" fill="white"/>
<rect width="1.55232" height="1.55232" transform="matrix(-1 0 0 1 5.78369 9.16144)" fill="white"/>
<rect width="1.55232" height="1.55232" transform="matrix(-1 0 0 1 5.78369 10.7137)" fill="white"/>
<rect width="1.55232" height="1.55232" transform="matrix(-1 0 0 1 5.78369 12.2661)" fill="white"/>
<rect width="1.55232" height="1.55232" transform="matrix(-1 0 0 1 5.78369 13.8184)" fill="white"/>
<rect width="1.55232" height="1.55232" transform="matrix(-1 0 0 1 5.78369 15.3707)" fill="white"/>
<rect width="1.55232" height="1.55232" transform="matrix(-1 0 0 1 5.78369 16.923)" fill="#E1E4F5"/>
<rect width="1.55232" height="1.55232" transform="matrix(-1 0 0 1 5.78369 18.4754)" fill="#753136"/>
<rect width="1.55232" height="1.55232" transform="matrix(-1 0 0 1 7.33594 18.4754)" fill="#E1E4F5"/>
<rect width="1.55232" height="1.55232" transform="matrix(-1 0 0 1 13.5444 18.4754)" fill="#E1E4F5"/>
<rect width="1.55232" height="1.55232" transform="matrix(-1 0 0 1 10.4404 18.4754)" fill="#E1E4F5"/>
<rect width="1.55232" height="1.55232" transform="matrix(-1 0 0 1 16.6499 18.4754)" fill="#E1E4F5"/>
<rect width="1.55232" height="1.55232" transform="matrix(-1 0 0 1 8.88867 18.4754)" fill="#E1E4F5"/>
<rect width="1.55232" height="1.55232" transform="matrix(-1 0 0 1 15.0962 18.4754)" fill="#E1E4F5"/>
<rect width="1.55232" height="1.55232" transform="matrix(-1 0 0 1 11.9922 18.4754)" fill="#E1E4F5"/>
<rect width="1.55232" height="1.55232" transform="matrix(-1 0 0 1 18.2026 18.4754)" fill="#E1E4F5"/>
<rect width="1.55232" height="1.55232" transform="matrix(-1 0 0 1 10.4404 13.8184)" fill="white"/>
<rect width="1.55232" height="1.55232" transform="matrix(-1 0 0 1 10.4404 15.3707)" fill="white"/>
<rect width="1.55232" height="1.55232" transform="matrix(-1 0 0 1 10.4404 16.923)" fill="white"/>
<rect width="1.55232" height="1.55232" transform="matrix(-1 0 0 1 15.0962 13.8184)" fill="white"/>
<rect width="1.55232" height="1.55232" transform="matrix(-1 0 0 1 15.0962 15.3707)" fill="white"/>
<rect width="1.55232" height="1.55232" transform="matrix(-1 0 0 1 15.0962 16.923)" fill="white"/>
<rect width="1.55232" height="1.55232" transform="matrix(-1 0 0 1 16.6499 10.7137)" fill="white"/>
</svg>
