<svg width="14" height="14" viewBox="0 0 14 14" fill="none" xmlns="http://www.w3.org/2000/svg">
<rect width="1.40002" height="1.40002" transform="matrix(-1 0 0 1 12.6006 1.40002)" fill="white"/>
<rect width="1.40002" height="1.40002" transform="matrix(-1 0 0 1 12.6006 4.2002)" fill="white"/>
<rect width="1.40002" height="1.40002" transform="matrix(-1 0 0 1 12.6006 2.79993)" fill="white"/>
<rect width="1.40002" height="1.40002" transform="matrix(-1 0 0 1 14.001 2.79993)" fill="white"/>
<rect width="1.40002" height="1.40002" transform="matrix(-1 0 0 1 11.2012 1.40002)" fill="white"/>
<rect width="1.40002" height="1.40002" transform="matrix(-1 0 0 1 11.2012 0)" fill="white"/>
<rect width="1.40002" height="1.40002" transform="matrix(-1 0 0 1 9.80078 1.40002)" fill="white"/>
<rect width="1.40002" height="1.40002" transform="matrix(-1 0 0 1 8.40039 1.40002)" fill="white"/>
<rect width="1.40002" height="1.40002" transform="matrix(-1 0 0 1 7 1.40002)" fill="white"/>
<rect width="1.40002" height="1.40002" transform="matrix(-1 0 0 1 5.60059 1.40002)" fill="white"/>
<rect width="1.40002" height="1.40002" transform="matrix(-1 0 0 1 4.2002 1.40002)" fill="white"/>
<rect width="1.40002" height="1.40002" transform="matrix(-1 0 0 1 2.80078 1.40002)" fill="white"/>
<rect width="1.40002" height="1.40002" transform="matrix(-1 0 0 1 11.2012 2.79993)" fill="white"/>
<rect width="1.40002" height="1.40002" transform="matrix(-1 0 0 1 9.80078 2.79993)" fill="white"/>
<rect width="1.40002" height="1.40002" transform="matrix(-1 0 0 1 9.80078 4.2002)" fill="white"/>
<rect width="1.40002" height="1.40002" transform="matrix(-1 0 0 1 7 4.2002)" fill="white"/>
<rect width="1.40002" height="1.40002" transform="matrix(-1 0 0 1 4.2002 4.2002)" fill="white"/>
<rect width="1.40002" height="1.40002" transform="matrix(-1 0 0 1 8.40039 2.79993)" fill="white"/>
<rect width="1.40002" height="1.40002" transform="matrix(-1 0 0 1 7 2.79993)" fill="white"/>
<rect width="1.40002" height="1.40002" transform="matrix(-1 0 0 1 5.60059 2.79993)" fill="white"/>
<rect width="1.40002" height="1.40002" transform="matrix(-1 0 0 1 4.2002 2.79993)" fill="white"/>
<rect width="1.40002" height="1.40002" transform="matrix(-1 0 0 1 2.80078 2.79993)" fill="white"/>
<rect width="1.40002" height="1.40002" transform="matrix(-1 0 0 1 1.39941 2.79993)" fill="white"/>
<rect width="1.40002" height="1.40002" transform="matrix(-1 0 0 1 11.2012 4.2002)" fill="white"/>
<rect width="1.40002" height="1.40002" transform="matrix(-1 0 0 1 8.40039 4.2002)" fill="white"/>
<rect width="1.40002" height="1.40002" transform="matrix(-1 0 0 1 5.60059 4.2002)" fill="white"/>
<rect width="1.40002" height="1.40002" transform="matrix(-1 0 0 1 2.80078 4.2002)" fill="white"/>
<rect width="1.40002" height="1.40002" transform="matrix(-1 0 0 1 1.39941 4.2002)" fill="white"/>
<rect width="1.40002" height="1.40002" transform="matrix(-1 0 0 1 2.80078 5.6001)" fill="white"/>
<rect width="1.40002" height="1.40002" transform="matrix(-1 0 0 1 1.39941 5.6001)" fill="white"/>
<rect width="1.40002" height="1.40002" transform="matrix(-1 0 0 1 2.80078 7.00012)" fill="white"/>
<rect width="1.40002" height="1.40002" transform="matrix(-1 0 0 1 1.39941 7.00012)" fill="white"/>
<rect width="1.40002" height="1.40002" transform="matrix(-1 0 0 1 2.80078 8.40015)" fill="white"/>
<rect width="1.40002" height="1.40002" transform="matrix(-1 0 0 1 1.39941 8.40015)" fill="white"/>
<rect width="1.40002" height="1.40002" transform="matrix(-1 0 0 1 2.80078 9.80005)" fill="white"/>
<rect width="1.40002" height="1.40002" transform="matrix(-1 0 0 1 2.80078 11.2003)" fill="white"/>
<rect width="1.40002" height="1.40002" transform="matrix(-1 0 0 1 2.80078 12.6002)" fill="white"/>
<rect width="1.40002" height="1.40002" transform="matrix(-1 0 0 1 1.39941 9.80005)" fill="white"/>
<rect width="1.40002" height="1.40002" transform="matrix(-1 0 0 1 5.60059 9.80005)" fill="white"/>
<rect width="1.40002" height="1.40002" transform="matrix(-1 0 0 1 5.60059 11.2003)" fill="white"/>
<rect width="1.40002" height="1.40002" transform="matrix(-1 0 0 1 5.60059 12.6002)" fill="white"/>
<rect width="1.40002" height="1.40002" transform="matrix(-1 0 0 1 8.40039 9.80005)" fill="white"/>
<rect width="1.40002" height="1.40002" transform="matrix(-1 0 0 1 8.40039 11.2003)" fill="white"/>
<rect width="1.40002" height="1.40002" transform="matrix(-1 0 0 1 8.40039 12.6002)" fill="white"/>
<rect width="1.40002" height="1.40002" transform="matrix(-1 0 0 1 11.2012 9.80005)" fill="white"/>
<rect width="1.40002" height="1.40002" transform="matrix(-1 0 0 1 11.2012 11.2003)" fill="white"/>
<rect width="1.40002" height="1.40002" transform="matrix(-1 0 0 1 11.2012 12.6002)" fill="white"/>
<rect width="1.40002" height="1.40002" transform="matrix(-1 0 0 1 4.2002 7.00012)" fill="white"/>
<rect width="1.40002" height="1.40002" transform="matrix(-1 0 0 1 4.2002 8.40015)" fill="white"/>
<rect width="1.40002" height="1.40002" transform="matrix(-1 0 0 1 4.2002 9.80005)" fill="white"/>
<rect width="1.40002" height="1.40002" transform="matrix(-1 0 0 1 4.2002 11.2003)" fill="white"/>
<rect width="1.40002" height="1.40002" transform="matrix(-1 0 0 1 4.2002 12.6002)" fill="white"/>
<rect width="1.40002" height="1.40002" transform="matrix(-1 0 0 1 7 9.80005)" fill="white"/>
<rect width="1.40002" height="1.40002" transform="matrix(-1 0 0 1 7 11.2003)" fill="white"/>
<rect width="1.40002" height="1.40002" transform="matrix(-1 0 0 1 7 12.6002)" fill="white"/>
<rect width="1.40002" height="1.40002" transform="matrix(-1 0 0 1 9.80078 9.80005)" fill="white"/>
<rect width="1.40002" height="1.40002" transform="matrix(-1 0 0 1 9.80078 11.2003)" fill="white"/>
<rect width="1.40002" height="1.40002" transform="matrix(-1 0 0 1 9.80078 12.6002)" fill="white"/>
<rect width="1.40002" height="1.40002" transform="matrix(-1 0 0 1 12.6006 9.80005)" fill="white"/>
<rect width="1.40002" height="1.40002" transform="matrix(-1 0 0 1 12.6006 11.2003)" fill="white"/>
<rect width="1.40002" height="1.40002" transform="matrix(-1 0 0 1 12.6006 12.6002)" fill="white"/>
<rect width="1.40002" height="1.40002" transform="matrix(-1 0 0 1 4.2002 5.6001)" fill="white"/>
<rect width="1.40002" height="1.40002" transform="matrix(-1 0 0 1 11.2012 5.6001)" fill="white"/>
</svg>
