<svg width="40" height="40" viewBox="0 0 40 40" fill="none" xmlns="http://www.w3.org/2000/svg">
<rect x="8" y="3" width="4.16667" height="4.16667" fill="#7B7DA1"/>
<rect x="8" y="32.1666" width="4.16667" height="4.16667" fill="#7B7DA1"/>
<rect x="11.6455" y="7.16663" width="2.08333" height="2.08333" fill="#7B7DA1"/>
<rect x="28.3125" y="7.16663" width="2.08333" height="2.08333" fill="#7B7DA1"/>
<rect x="11.6455" y="9.25" width="2.08333" height="2.08333" fill="#7B7DA1"/>
<rect x="28.3125" y="9.25" width="2.08333" height="2.08333" fill="#7B7DA1"/>
<rect x="11.6455" y="11.3334" width="2.08333" height="2.08333" fill="#7B7DA1"/>
<rect x="11.6455" y="25.9166" width="2.08333" height="2.08333" fill="#7B7DA1"/>
<rect x="28.3125" y="25.9166" width="2.08333" height="2.08333" fill="#7B7DA1"/>
<rect x="11.6455" y="28" width="2.08333" height="2.08333" fill="#7B7DA1"/>
<rect x="28.3125" y="28" width="2.08333" height="2.08333" fill="#7B7DA1"/>
<rect x="11.6455" y="30.0834" width="2.08333" height="2.08333" fill="#7B7DA1"/>
<rect x="28.3125" y="30.0834" width="2.08333" height="2.08333" fill="#7B7DA1"/>
<rect x="28.3125" y="11.3334" width="2.08333" height="2.08333" fill="#7B7DA1"/>
<rect x="13.7295" y="13.4166" width="2.08333" height="2.08333" fill="#7B7DA1"/>
<rect x="13.7295" y="23.8334" width="2.08333" height="2.08333" fill="#7B7DA1"/>
<rect x="26.2295" y="13.4166" width="2.08333" height="2.08333" fill="#7B7DA1"/>
<rect x="26.2295" y="23.8334" width="2.08333" height="2.08333" fill="#7B7DA1"/>
<rect x="15.8125" y="15.5" width="2.08333" height="2.08333" fill="#7B7DA1"/>
<rect x="15.8125" y="21.75" width="2.08333" height="2.08333" fill="#7B7DA1"/>
<rect x="24.1455" y="15.5" width="2.08333" height="2.08333" fill="#7B7DA1"/>
<rect x="24.1455" y="21.75" width="2.08333" height="2.08333" fill="#7B7DA1"/>
<rect x="17.8955" y="17.5834" width="2.08333" height="2.08333" fill="#7B7DA1"/>
<rect x="22.0625" y="17.5834" width="2.08333" height="2.08333" fill="#7B7DA1"/>
<rect x="19.9795" y="13.4166" width="2.08333" height="2.08333" fill="#7B7DA1"/>
<rect x="17.8955" y="11.3334" width="2.08333" height="2.08333" fill="#7B7DA1"/>
<rect x="22.0625" y="11.3334" width="2.08333" height="2.08333" fill="#7B7DA1"/>
<rect x="19.9795" y="24.875" width="2.08333" height="2.08333" fill="#7B7DA1"/>
<rect x="19.9795" y="29.0416" width="2.08333" height="2.08333" fill="#7B7DA1"/>
<rect x="17.8955" y="26.9584" width="2.08333" height="2.08333" fill="#7B7DA1"/>
<rect x="15.8125" y="29.0416" width="2.08333" height="2.08333" fill="#7B7DA1"/>
<rect x="24.1455" y="29.0416" width="2.08333" height="2.08333" fill="#7B7DA1"/>
<rect x="22.0625" y="26.9584" width="2.08333" height="2.08333" fill="#7B7DA1"/>
<rect x="17.8955" y="19.6666" width="2.08333" height="2.08333" fill="#7B7DA1"/>
<rect x="22.0625" y="19.6666" width="2.08333" height="2.08333" fill="#7B7DA1"/>
<rect x="12.167" y="3" width="4.16667" height="4.16667" fill="#7B7DA1"/>
<rect x="12.167" y="32.1666" width="4.16667" height="4.16667" fill="#7B7DA1"/>
<rect x="16.333" y="3" width="4.16667" height="4.16667" fill="#7B7DA1"/>
<rect x="16.333" y="32.1666" width="4.16667" height="4.16667" fill="#7B7DA1"/>
<rect x="20.5" y="3" width="4.16667" height="4.16667" fill="#7B7DA1"/>
<rect x="20.5" y="32.1666" width="4.16667" height="4.16667" fill="#7B7DA1"/>
<rect x="24.667" y="3" width="4.16667" height="4.16667" fill="#7B7DA1"/>
<rect x="24.667" y="3" width="4.16667" height="4.16667" fill="#7B7DA1"/>
<rect x="24.667" y="32.1666" width="4.16667" height="4.16667" fill="#7B7DA1"/>
<rect x="28.833" y="3" width="4.16667" height="4.16667" fill="#7B7DA1"/>
<rect x="28.833" y="32.1666" width="4.16667" height="4.16667" fill="#7B7DA1"/>
</svg>
