<svg width="20" height="20" viewBox="0 0 20 20" fill="none" xmlns="http://www.w3.org/2000/svg">
<rect width="1.2936" height="1.2936" transform="matrix(-1 0 0 1 16.0449 6.34094)" fill="white"/>
<rect width="1.2936" height="1.2936" transform="matrix(-1 0 0 1 14.7529 7.63452)" fill="white"/>
<rect width="1.2936" height="1.2936" transform="matrix(-1 0 0 1 14.7529 6.34094)" fill="white"/>
<rect width="1.2936" height="1.2936" transform="matrix(-1 0 0 1 14.7529 5.04724)" fill="white"/>
<rect width="1.2936" height="1.2936" transform="matrix(-1 0 0 1 13.457 3.75366)" fill="white"/>
<rect width="1.2936" height="1.2936" transform="matrix(-1 0 0 1 13.457 5.04724)" fill="white"/>
<rect width="1.2936" height="1.2936" transform="matrix(-1 0 0 1 12.165 5.04724)" fill="white"/>
<rect width="1.2936" height="1.2936" transform="matrix(-1 0 0 1 10.8711 5.04724)" fill="white"/>
<rect width="1.2936" height="1.2936" transform="matrix(-1 0 0 1 9.57715 5.04724)" fill="white"/>
<rect width="1.2936" height="1.2936" transform="matrix(-1 0 0 1 8.28418 5.04724)" fill="white"/>
<rect width="1.2936" height="1.2936" transform="matrix(-1 0 0 1 6.99023 5.04724)" fill="white"/>
<rect width="1.2936" height="1.2936" transform="matrix(-1 0 0 1 5.69629 5.04724)" fill="white"/>
<rect width="1.2936" height="1.2936" transform="matrix(-1 0 0 1 13.457 6.34094)" fill="white"/>
<rect width="1.2936" height="1.2936" transform="matrix(-1 0 0 1 12.165 6.34094)" fill="white"/>
<rect width="1.2936" height="1.2936" transform="matrix(-1 0 0 1 10.8711 6.34094)" fill="white"/>
<rect width="1.2936" height="1.2936" transform="matrix(-1 0 0 1 9.57715 6.34094)" fill="white"/>
<rect width="1.2936" height="1.2936" transform="matrix(-1 0 0 1 8.28418 6.34094)" fill="white"/>
<rect width="1.2936" height="1.2936" transform="matrix(-1 0 0 1 6.99023 6.34094)" fill="white"/>
<rect width="1.2936" height="1.2936" transform="matrix(-1 0 0 1 5.69629 6.34094)" fill="white"/>
<rect width="1.2936" height="1.2936" transform="matrix(-1 0 0 1 4.40234 6.34094)" fill="white"/>
<rect width="1.2936" height="1.2936" transform="matrix(-1 0 0 1 13.457 7.63452)" fill="white"/>
<rect width="1.2936" height="1.2936" transform="matrix(-1 0 0 1 12.165 7.63452)" fill="white"/>
<rect width="1.2936" height="1.2936" transform="matrix(-1 0 0 1 10.8711 7.63452)" fill="white"/>
<rect width="1.2936" height="1.2936" transform="matrix(-1 0 0 1 9.57715 7.63452)" fill="white"/>
<rect width="1.2936" height="1.2936" transform="matrix(-1 0 0 1 8.28418 7.63452)" fill="white"/>
<rect width="1.2936" height="1.2936" transform="matrix(-1 0 0 1 6.99023 7.63452)" fill="white"/>
<rect width="1.2936" height="1.2936" transform="matrix(-1 0 0 1 6.99023 8.92822)" fill="white"/>
<rect width="1.2936" height="1.2936" transform="matrix(-1 0 0 1 6.99023 10.2218)" fill="white"/>
<rect width="1.2936" height="1.2936" transform="matrix(-1 0 0 1 6.99023 11.5153)" fill="white"/>
<rect width="1.2936" height="1.2936" transform="matrix(-1 0 0 1 6.99023 12.8088)" fill="white"/>
<rect width="1.2936" height="1.2936" transform="matrix(-1 0 0 1 6.99023 14.1025)" fill="white"/>
<rect width="1.2936" height="1.2936" transform="matrix(-1 0 0 1 10.8711 11.5153)" fill="white"/>
<rect width="1.2936" height="1.2936" transform="matrix(-1 0 0 1 10.8711 12.8088)" fill="white"/>
<rect width="1.2936" height="1.2936" transform="matrix(-1 0 0 1 10.8711 14.1025)" fill="white"/>
<rect width="1.2936" height="1.2936" transform="matrix(-1 0 0 1 14.7529 11.5153)" fill="white"/>
<rect width="1.2936" height="1.2936" transform="matrix(-1 0 0 1 14.7529 14.1025)" fill="white"/>
<rect width="1.2936" height="1.2936" transform="matrix(-1 0 0 1 14.7529 12.8088)" fill="white"/>
<rect width="1.2936" height="1.2936" transform="matrix(-1 0 0 1 3.1084 7.63452)" fill="#0D0D0D"/>
<rect width="1.2936" height="1.2936" transform="matrix(-1 0 0 1 8.28418 8.92822)" fill="#E1E4F5"/>
<rect width="1.2936" height="1.2936" transform="matrix(-1 0 0 1 9.57715 8.92822)" fill="#E1E4F5"/>
<rect width="1.2936" height="1.2936" transform="matrix(-1 0 0 1 10.8711 8.92822)" fill="#E1E4F5"/>
<rect width="1.2936" height="1.2936" transform="matrix(-1 0 0 1 12.165 8.92822)" fill="#E1E4F5"/>
<rect width="1.2936" height="1.2936" transform="matrix(-1 0 0 1 13.457 10.2218)" fill="#E1E4F5"/>
<rect width="1.2936" height="1.2936" transform="matrix(-1 0 0 1 14.7529 8.92822)" fill="#E1E4F5"/>
<rect width="1.2936" height="1.2936" transform="matrix(-1 0 0 1 16.0449 7.63452)" fill="#E1E4F5"/>
<rect width="1.2936" height="1.2936" transform="matrix(-1 0 0 1 5.69629 7.63452)" fill="white"/>
<rect width="1.2936" height="1.2936" transform="matrix(-1 0 0 1 5.69629 8.92822)" fill="white"/>
<rect width="1.2936" height="1.2936" transform="matrix(-1 0 0 1 5.69629 10.2218)" fill="white"/>
<rect width="1.2936" height="1.2936" transform="matrix(-1 0 0 1 5.69629 11.5153)" fill="white"/>
<rect width="1.2936" height="1.2936" transform="matrix(-1 0 0 1 5.69629 12.8088)" fill="white"/>
<rect width="1.2936" height="1.2936" transform="matrix(-1 0 0 1 5.69629 14.1025)" fill="white"/>
<rect width="1.2936" height="1.2936" transform="matrix(-1 0 0 1 9.57715 11.5153)" fill="white"/>
<rect width="1.2936" height="1.2936" transform="matrix(-1 0 0 1 9.57715 12.8088)" fill="white"/>
<rect width="1.2936" height="1.2936" transform="matrix(-1 0 0 1 9.57715 14.1025)" fill="white"/>
<rect width="1.2936" height="1.2936" transform="matrix(-1 0 0 1 13.457 11.5153)" fill="white"/>
<rect width="1.2936" height="1.2936" transform="matrix(-1 0 0 1 13.457 14.1025)" fill="white"/>
<rect width="1.2936" height="1.2936" transform="matrix(-1 0 0 1 13.457 12.8088)" fill="white"/>
<rect width="1.2936" height="1.2936" transform="matrix(-1 0 0 1 4.40234 7.63452)" fill="white"/>
<rect width="1.2936" height="1.2936" transform="matrix(-1 0 0 1 4.40234 8.92822)" fill="white"/>
<rect width="1.2936" height="1.2936" transform="matrix(-1 0 0 1 4.40234 10.2218)" fill="white"/>
<rect width="1.2936" height="1.2936" transform="matrix(-1 0 0 1 4.40234 11.5153)" fill="white"/>
<rect width="1.2936" height="1.2936" transform="matrix(-1 0 0 1 4.40234 12.8088)" fill="white"/>
<rect width="1.2936" height="1.2936" transform="matrix(-1 0 0 1 4.40234 14.1025)" fill="#E1E4F5"/>
<rect width="1.2936" height="1.2936" transform="matrix(-1 0 0 1 5.69629 15.3961)" fill="#E1E4F5"/>
<rect width="1.2936" height="1.2936" transform="matrix(-1 0 0 1 10.8711 15.3961)" fill="#E1E4F5"/>
<rect width="1.2936" height="1.2936" transform="matrix(-1 0 0 1 8.28418 15.3961)" fill="#E1E4F5"/>
<rect width="1.2936" height="1.2936" transform="matrix(-1 0 0 1 13.457 15.3961)" fill="#E1E4F5"/>
<rect width="1.2936" height="1.2936" transform="matrix(-1 0 0 1 6.99023 15.3961)" fill="#E1E4F5"/>
<rect width="1.2936" height="1.2936" transform="matrix(-1 0 0 1 12.165 15.3961)" fill="#E1E4F5"/>
<rect width="1.2936" height="1.2936" transform="matrix(-1 0 0 1 9.57715 15.3961)" fill="#E1E4F5"/>
<rect width="1.2936" height="1.2936" transform="matrix(-1 0 0 1 14.7529 15.3961)" fill="#E1E4F5"/>
<rect width="1.2936" height="1.2936" transform="matrix(-1 0 0 1 8.28418 11.5153)" fill="white"/>
<rect width="1.2936" height="1.2936" transform="matrix(-1 0 0 1 8.28418 12.8088)" fill="white"/>
<rect width="1.2936" height="1.2936" transform="matrix(-1 0 0 1 8.28418 14.1025)" fill="white"/>
<rect width="1.2936" height="1.2936" transform="matrix(-1 0 0 1 12.165 11.5153)" fill="white"/>
<rect width="1.2936" height="1.2936" transform="matrix(-1 0 0 1 12.165 12.8088)" fill="white"/>
<rect width="1.2936" height="1.2936" transform="matrix(-1 0 0 1 12.165 14.1025)" fill="white"/>
<rect width="1.2936" height="1.2936" transform="matrix(-1 0 0 1 13.457 8.92822)" fill="white"/>
</svg>
