<svg width="25" height="24" viewBox="0 0 25 24" fill="none" xmlns="http://www.w3.org/2000/svg">
<g id="Group 42">
<g id="pause">
<rect id="Rectangle 880" x="15.5" y="7" width="2" height="2" fill="white"/>
<rect id="Rectangle 911" x="15.5" y="9" width="2" height="2" fill="white"/>
<rect id="Rectangle 918" x="15.5" y="11" width="2" height="2" fill="white"/>
<rect id="Rectangle 925" x="15.5" y="13" width="2" height="2" fill="white"/>
<rect id="Rectangle 932" x="15.5" y="15" width="2" height="2" fill="white"/>
<rect id="Rectangle 939" x="15.5" y="17" width="2" height="2" fill="#E1E4F5"/>
<rect id="Rectangle 906" x="13.5" y="7" width="2" height="2" fill="white"/>
<rect id="Rectangle 912" x="13.5" y="9" width="2" height="2" fill="white"/>
<rect id="Rectangle 919" x="13.5" y="11" width="2" height="2" fill="white"/>
<rect id="Rectangle 926" x="13.5" y="13" width="2" height="2" fill="white"/>
<rect id="Rectangle 933" x="13.5" y="15" width="2" height="2" fill="white"/>
<rect id="Rectangle 940" x="13.5" y="17" width="2" height="2" fill="#E1E4F5"/>
<rect id="Rectangle 907" x="11.5" y="7" width="2" height="2" fill="white"/>
<rect id="Rectangle 913" x="11.5" y="9" width="2" height="2" fill="white"/>
<rect id="Rectangle 920" x="11.5" y="11" width="2" height="2" fill="white"/>
<rect id="Rectangle 927" x="11.5" y="13" width="2" height="2" fill="white"/>
<rect id="Rectangle 934" x="11.5" y="15" width="2" height="2" fill="white"/>
<rect id="Rectangle 941" x="11.5" y="17" width="2" height="2" fill="#E1E4F5"/>
<rect id="Rectangle 908" x="9.5" y="7" width="2" height="2" fill="white"/>
<rect id="Rectangle 914" x="9.5" y="9" width="2" height="2" fill="white"/>
<rect id="Rectangle 921" x="9.5" y="11" width="2" height="2" fill="white"/>
<rect id="Rectangle 928" x="9.5" y="13" width="2" height="2" fill="white"/>
<rect id="Rectangle 935" x="9.5" y="15" width="2" height="2" fill="white"/>
<rect id="Rectangle 942" x="9.5" y="17" width="2" height="2" fill="#E1E4F5"/>
<rect id="Rectangle 909" x="7.5" y="7" width="2" height="2" fill="white"/>
<rect id="Rectangle 915" x="7.5" y="9" width="2" height="2" fill="white"/>
<rect id="Rectangle 922" x="7.5" y="11" width="2" height="2" fill="white"/>
<rect id="Rectangle 929" x="7.5" y="13" width="2" height="2" fill="white"/>
<rect id="Rectangle 936" x="7.5" y="15" width="2" height="2" fill="white"/>
<rect id="Rectangle 943" x="7.5" y="17" width="2" height="2" fill="#E1E4F5"/>
<rect id="Rectangle 910" x="5.5" y="7" width="2" height="2" fill="white"/>
<rect id="Rectangle 916" x="5.5" y="9" width="2" height="2" fill="white"/>
<rect id="Rectangle 923" x="5.5" y="11" width="2" height="2" fill="white"/>
<rect id="Rectangle 930" x="5.5" y="13" width="2" height="2" fill="white"/>
<rect id="Rectangle 937" x="5.5" y="15" width="2" height="2" fill="white"/>
<rect id="Rectangle 944" x="5.5" y="17" width="2" height="2" fill="#E1E4F5"/>
<rect id="Rectangle 881" x="7.5" y="5" width="2" height="2" fill="white"/>
<rect id="Rectangle 882" x="9.5" y="5" width="2" height="2" fill="white"/>
<rect id="Rectangle 883" x="11.5" y="5" width="2" height="2" fill="white"/>
<rect id="Rectangle 884" x="13.5" y="5" width="2" height="2" fill="white"/>
<rect id="Rectangle 895" x="17.5" y="7" width="2" height="2" fill="#E1E4F5"/>
<rect id="Rectangle 917" x="17.5" y="9" width="2" height="2" fill="#E1E4F5"/>
<rect id="Rectangle 924" x="17.5" y="11" width="2" height="2" fill="#E1E4F5"/>
<rect id="Rectangle 931" x="17.5" y="13" width="2" height="2" fill="#E1E4F5"/>
<rect id="Rectangle 938" x="17.5" y="15" width="2" height="2" fill="#E1E4F5"/>
<rect id="Rectangle 945" x="17.5" y="17" width="2" height="2" fill="#E1E4F5"/>
<rect id="Rectangle 904" x="17.5" y="5" width="2" height="2" fill="#E1E4F5"/>
<rect id="Rectangle 946" x="17.5" y="3" width="2" height="2" fill="#753136"/>
<rect id="Rectangle 953" x="17.5" y="19" width="2" height="2" fill="#753136"/>
<rect id="Rectangle 947" x="15.5" y="3" width="2" height="2" fill="#753136"/>
<rect id="Rectangle 954" x="15.5" y="19" width="2" height="2" fill="#753136"/>
<rect id="Rectangle 948" x="13.5" y="3" width="2" height="2" fill="#753136"/>
<rect id="Rectangle 955" x="13.5" y="19" width="2" height="2" fill="#753136"/>
<rect id="Rectangle 949" x="11.5" y="3" width="2" height="2" fill="#753136"/>
<rect id="Rectangle 956" x="11.5" y="19" width="2" height="2" fill="#753136"/>
<rect id="Rectangle 950" x="9.5" y="3" width="2" height="2" fill="#753136"/>
<rect id="Rectangle 957" x="9.5" y="19" width="2" height="2" fill="#753136"/>
<rect id="Rectangle 951" x="7.5" y="3" width="2" height="2" fill="#753136"/>
<rect id="Rectangle 958" x="7.5" y="19" width="2" height="2" fill="#753136"/>
<rect id="Rectangle 952" x="5.5" y="3" width="2" height="2" fill="#753136"/>
<rect id="Rectangle 960" x="3.5" y="3" width="2" height="2" fill="#753136"/>
<rect id="Rectangle 969" x="19.5" y="3" width="2" height="2" fill="#753136"/>
<rect id="Rectangle 961" x="3.5" y="5" width="2" height="2" fill="#753136"/>
<rect id="Rectangle 970" x="19.5" y="5" width="2" height="2" fill="#753136"/>
<rect id="Rectangle 962" x="3.5" y="7" width="2" height="2" fill="#753136"/>
<rect id="Rectangle 971" x="19.5" y="7" width="2" height="2" fill="#753136"/>
<rect id="Rectangle 963" x="3.5" y="9" width="2" height="2" fill="#753136"/>
<rect id="Rectangle 972" x="19.5" y="9" width="2" height="2" fill="#753136"/>
<rect id="Rectangle 964" x="3.5" y="11" width="2" height="2" fill="#753136"/>
<rect id="Rectangle 973" x="19.5" y="11" width="2" height="2" fill="#753136"/>
<rect id="Rectangle 965" x="3.5" y="13" width="2" height="2" fill="#753136"/>
<rect id="Rectangle 974" x="19.5" y="13" width="2" height="2" fill="#753136"/>
<rect id="Rectangle 966" x="3.5" y="15" width="2" height="2" fill="#753136"/>
<rect id="Rectangle 975" x="19.5" y="15" width="2" height="2" fill="#753136"/>
<rect id="Rectangle 967" x="3.5" y="17" width="2" height="2" fill="#753136"/>
<rect id="Rectangle 976" x="19.5" y="17" width="2" height="2" fill="#753136"/>
<rect id="Rectangle 968" x="3.5" y="19" width="2" height="2" fill="#753136"/>
<rect id="Rectangle 977" x="19.5" y="19" width="2" height="2" fill="#753136"/>
<rect id="Rectangle 959" x="5.5" y="19" width="2" height="2" fill="#753136"/>
<rect id="Rectangle 905" x="5.5" y="5" width="2" height="2" fill="white"/>
<rect id="Rectangle 896" x="15.5" y="5" width="2" height="2" fill="white"/>
</g>
</g>
</svg>
